<?xml version="1.0" encoding="utf-8"?>
<!-- Generator: Adobe Illustrator 28.1.0, SVG Export Plug-In . SVG Version: 6.00 Build 0)  -->
<svg version="1.1" id="Layer_1" xmlns="http://www.w3.org/2000/svg" xmlns:xlink="http://www.w3.org/1999/xlink" x="0px" y="0px"
	 viewBox="0 0 800 800" style="enable-background:new 0 0 800 800;" xml:space="preserve">
<style type="text/css">
	.st0{fill:#FFFFFF;}
</style>
<polygon class="st0" points="566.7,400 566.7,433.3 500,433.3 500,500 433.3,500 433.3,100 366.7,100 366.7,500 300,500 300,433.3 
	233.3,433.3 233.3,400 166.7,400 166.7,500 233.3,500 233.3,566.7 300,566.7 300,633.3 333.3,633.3 333.3,666.7 366.7,666.7 
	366.7,700 433.3,700 433.3,666.7 466.7,666.7 466.7,633.3 500,633.3 500,566.7 566.7,566.7 566.7,500 633.3,500 633.3,400 "/>
</svg>
