<?xml version="1.0" encoding="utf-8"?>
<!-- Generator: Adobe Illustrator 28.1.0, SVG Export Plug-In . SVG Version: 6.00 Build 0)  -->
<svg version="1.1" id="Layer_1" xmlns="http://www.w3.org/2000/svg" xmlns:xlink="http://www.w3.org/1999/xlink" x="0px" y="0px"
	 viewBox="0 0 192 192" style="enable-background:new 0 0 192 192;" xml:space="preserve">
<style type="text/css">
	.st0{fill:#FFFFFF;}
</style>
<path class="st0" d="M60.8,9.8C32.7,9.8,9.8,32.7,9.8,60.8v70.5c0,28.1,22.8,50.9,50.9,50.9h70.5c28.1,0,50.9-22.8,50.9-50.9V60.8
	c0-28.1-22.8-50.9-50.9-50.9H60.8z M60.8,17.7h70.5c23.8,0,43.1,19.2,43.1,43.1v70.5c0,23.8-19.2,43.1-43.1,43.1H60.8
	c-23.8,0-43.1-19.2-43.1-43.1V60.8C17.7,36.9,36.9,17.7,60.8,17.7z M143,41.2c-4.3,0-7.8,3.5-7.8,7.8s3.5,7.8,7.8,7.8
	s7.8-3.5,7.8-7.8S147.3,41.2,143,41.2z M96,52.9c-23.7,0-43.1,19.3-43.1,43.1s19.3,43.1,43.1,43.1s43.1-19.3,43.1-43.1
	S119.7,52.9,96,52.9z M96,60.8c19.5,0,35.2,15.7,35.2,35.2s-15.7,35.2-35.2,35.2S60.8,115.5,60.8,96S76.5,60.8,96,60.8z"/>
</svg>
