<?xml version="1.0" encoding="utf-8"?>
<!-- Generator: Adobe Illustrator 28.1.0, SVG Export Plug-In . SVG Version: 6.00 Build 0)  -->
<svg version="1.1" id="Layer_1" xmlns="http://www.w3.org/2000/svg" xmlns:xlink="http://www.w3.org/1999/xlink" x="0px" y="0px"
	 viewBox="0 0 192 192" style="enable-background:new 0 0 192 192;" xml:space="preserve">
<style type="text/css">
	.st0{fill:#FFFFFF;}
</style>
<path class="st0" d="M73.5,165.7c-7.5,0-14.9-0.7-21.1-3.6c-3.7-1.7-7-4.1-10.5-6.7c-2.5-1.9-5.4-4.1-7.3-7.1c-1.2-2-1.9-4.1-2.5-6
	c-5.5-18.4-6-38.4-5.7-57.3c0.1-8.5,0.6-17.1,1.5-25.5c0.2-1.5,0.3-3.1,0.6-4.6c0.7-4,2-7.5,3.8-10.5c1.2-2,2.7-3.9,4.6-5.6
	c2.8-2.7,6.1-4.9,9.8-6.5c6.7-3,14-3.8,21.6-4.4l15.3-1.2c9.1-0.7,18.6-1.5,27.9-1.2c8.3,0.3,16.6,0.9,24.2,1.5c3,0.2,6,0.5,9,1.5
	c4.5,1.5,8.6,4.8,11.6,9.2c2.5,3.6,4.3,7.9,5.6,13.3c1.7,7.3,2,14.9,2.2,21.6l0,0.6c0.1,2,0.1,4.1,0.2,6.1c0.3,5,0.5,10,0.6,15
	c0.3,11.8,0.2,21.5-0.4,30.5c-0.6,9.3-2.2,19.8-9,27c-9.8,10.4-25.4,11.8-36.3,11.9c-1.6,0-3.3,0-4.9,0c-1.3,0-2.7,0-4.1,0
	c-5.8,0-11.6,0.5-17.3,1.1c-4.1,0.4-8.3,0.8-12.5,0.9C78.3,165.6,75.9,165.7,73.5,165.7z M106.8,29.3c-7.7,0-15.4,0.6-22.9,1.2
	l-15.3,1.2c-7.5,0.6-14.2,1.3-20.3,4c-3.2,1.4-6.1,3.4-8.6,5.8c-1.6,1.5-2.9,3.1-3.9,4.8c-1.6,2.6-2.7,5.7-3.3,9.1
	c-0.2,1.4-0.4,2.9-0.6,4.3c-0.8,8.3-1.3,16.8-1.5,25.2c-0.3,18.5,0.2,38.2,5.5,56.1c0.5,1.7,1.1,3.5,2,5.1c1.5,2.4,3.9,4.3,6.3,6
	c3.3,2.5,6.4,4.7,9.8,6.3c7.4,3.4,17.1,3.4,26.5,3c4.1-0.2,8.3-0.6,12.3-0.9c5.8-0.5,11.7-1.1,17.6-1.1c1.4,0,2.8,0,4.1,0
	c1.6,0,3.2,0.1,4.8,0c11-0.1,24.8-1.5,33.4-10.7c5.9-6.3,7.3-15.9,7.9-24.5c0.6-8.9,0.7-18.5,0.4-30.1c-0.1-5-0.4-9.9-0.6-14.9
	c-0.1-2.1-0.2-4.1-0.2-6.2l0-0.6c0,0,0,0,0,0c-0.2-6.5-0.5-13.8-2.1-20.8c-1.2-4.9-2.8-8.8-5-12c-2.5-3.7-5.9-6.4-9.6-7.6
	c-2.5-0.9-5.4-1.1-8.1-1.3c-7.6-0.6-15.8-1.2-24.1-1.5C109.9,29.3,108.3,29.3,106.8,29.3z"/>
<path class="st0" d="M104.6,182.2c-4,0-8-0.1-11.9-0.3c-3.6-0.2-7.2-0.6-10.8-0.9c-3.5-0.4-7.2-0.8-10.8-0.9l-4-0.2
	c-5.9-0.2-12-0.4-18.1-1.4c-3.8-0.6-7.8-1.5-11.4-3.6c-2.6-1.5-4.6-3.6-6.6-5.5l-7.5-7.5c-1.9-1.8-3.8-3.7-5.2-6.1
	c-1.7-2.8-2.5-5.9-3-8.6c-2-9.5-2.1-19.1-1.9-28.2c0.1-5.6-0.4-11.3-0.8-16.7c-0.3-3.2-0.6-6.5-0.7-9.8c-0.4-8.2-0.7-16.5-0.7-24.6
	c-0.1-9.9,0.2-20.3,4.7-29.3c4.2-8.4,12.2-15.3,22.4-19.7c9.6-4.1,20-5.4,28.9-6.2c3-0.3,6.1-0.6,9.1-0.9c6.3-0.6,12.9-1.3,19.3-1.7
	c6.6-0.4,13.4,0.1,20,0.6c2.7,0.2,5.5,0.4,8.2,0.6c11.2,0.6,23.9,1.3,34.7,7.1c10.8,5.9,18.7,16.6,20.9,28.8
	c1.1,5.9,1.2,11.8,1.2,16.3l0,0c0,2.3,0,4.7-0.1,7c0,2.3-0.1,4.5-0.1,6.8c0,5.1,0.1,10.4,0.3,15.6c0.3,11.2,0.6,22.8-0.5,34.1
	c-1,10-3,19.8-6.2,29.2c-0.7,2.2-1.6,4.6-3.1,6.6c-1.6,2.2-3.8,3.8-5.8,5.2c-5,3.6-10.1,7.4-16.1,9.5c-4.2,1.5-8.6,2.2-12.4,2.6
	C126,181.5,115.3,182.2,104.6,182.2z M100.7,13.9c-1.6,0-3.2,0-4.8,0.1c-6.4,0.4-12.9,1.1-19.2,1.7c-3,0.3-6.1,0.6-9.1,0.9
	c-8.6,0.8-18.6,2.1-27.7,5.9c-9.4,4-16.6,10.3-20.4,17.8c-4.1,8.2-4.4,17.6-4.3,27.4c0.1,8.1,0.3,16.4,0.7,24.5
	c0.2,3.2,0.4,6.4,0.7,9.6c0.5,5.6,1,11.4,0.9,17.2c-0.2,8.8-0.1,18.2,1.8,27.3c0.5,2.4,1.2,5.1,2.6,7.4c1.2,1.9,2.9,3.7,4.6,5.3
	l7.5,7.5c1.8,1.8,3.7,3.7,5.8,5c3,1.8,6.5,2.5,10,3.1c5.8,0.9,11.8,1.2,17.6,1.4l4,0.2c3.7,0.2,7.4,0.6,11.1,1
	c3.5,0.4,7,0.8,10.5,0.9c14.4,0.7,28.9,0.1,43.2-1.7c3.6-0.5,7.8-1.1,11.6-2.4c5.5-2,10.4-5.5,15.1-9c1.8-1.3,3.6-2.7,4.9-4.4
	c1.2-1.6,1.9-3.6,2.5-5.5c3-9.1,5.1-18.7,6-28.3c1.1-11,0.8-22.5,0.5-33.6c-0.1-5.3-0.3-10.5-0.3-15.7c0-2.3,0-4.5,0.1-6.8
	s0.1-4.6,0.1-6.9l0,0c0-4.3-0.1-10-1.2-15.6c-2-10.8-9.2-20.8-18.9-26c-10-5.4-22.2-6.1-33-6.7c-2.7-0.1-5.5-0.4-8.3-0.6
	C110.4,14.3,105.5,13.9,100.7,13.9z"/>
<path class="st0" d="M139.7,61.1c-0.2,0-0.4,0-0.5,0c-4.4-0.2-8.9-3-10.8-6.6c-2.1-4-1-9.1,2.6-11.3c4.3-2.7,9.9-2.4,13.8,0.8l0,0
	c1.7,1.4,2.9,3.4,3.5,5.6c0.7,2.8,0.2,5.6-1.3,7.8C145.3,59.8,142.7,61.1,139.7,61.1z M137.3,45.3c-1.5,0-2.9,0.4-4.2,1.2
	c-1.8,1.1-2.3,4-1.2,6.1c1.2,2.4,4.5,4.3,7.5,4.5c1.8,0.1,3.3-0.6,4.2-1.9c0.8-1.3,1.1-3,0.7-4.7c-0.3-1.4-1.1-2.5-2.1-3.4
	C140.8,45.9,139,45.3,137.3,45.3z"/>
<path class="st0" d="M97.6,122c-4.5,0-9-1.1-12.9-3.2c-2-1.1-3.6-2.5-5.1-3.9c-1.2-1.1-2.4-2.1-3.6-2.9c-5-3.1-8.1-11-7.9-16.4
	c0.1-3.3,1.3-6.3,2.4-8.9c1.6-3.9,3.4-8.3,6.7-11.7c3.5-3.5,8.4-5.7,14.2-6.2l0,0c2.5-0.2,5.1-0.1,7.7,0.2c5.8,0.8,11,2.9,15.1,5.9
	c4.7,3.5,8,8.4,9.1,13.7c2.2,10-2,22-9.7,28C109.2,120.2,103.4,122,97.6,122z M91.8,72.7c-3.4,0.3-8.2,1.4-11.7,5
	c-2.8,2.8-4.3,6.7-5.8,10.4c-1,2.5-2,5-2.1,7.6c-0.2,4.1,2.4,10.6,6,12.8c1.6,1,2.9,2.2,4.2,3.3c1.4,1.3,2.8,2.5,4.3,3.3
	c7.7,4.2,18,3.4,24.6-1.7c6.6-5.2,10.1-15.5,8.3-24c-0.9-4.3-3.7-8.4-7.6-11.3c-3.6-2.7-8.1-4.5-13.3-5.2
	C96.3,72.6,94,72.5,91.8,72.7L91.8,72.7z"/>
<path class="st0" d="M95.4,138.5c-6.8,0-13.4-1.3-19.4-4c-11.3-5-19.5-14.2-22.1-24.6c-2-8-0.6-16,0.8-22.2c1.1-5,3-12.3,6.2-17.7
	c2.8-4.7,6.6-8.9,10.9-12c2.8-2,5.7-3.6,8.6-4.5c0,0,0.4-0.1,0.4-0.1l0,0c8.3-2.6,17.5-1,24.8,0.3c9.7,1.7,19.9,9.3,25.6,16
	c1.6,1.8,2.7,3.4,3.5,5c1.7,3.4,2.2,7.2,2.5,10.8c0.8,10.2-0.1,18.9-2.7,26.7c-4.1,12.2-12,20.4-22.7,23.7
	C106.4,137.6,100.9,138.5,95.4,138.5z M81.5,55.2l0.3,2c-2.5,0.8-5.1,2.2-7.6,4c-3.9,2.8-7.3,6.6-9.8,10.8c-2.9,5-4.7,11.8-5.8,16.6
	c-1.3,5.7-2.6,13.2-0.8,20.3c2.3,9.2,9.7,17.4,19.9,21.9c9.8,4.4,21.6,4.8,33.1,1.3c11.9-3.7,17.5-13.6,20.1-21.2
	c2.4-7.2,3.3-15.4,2.5-25.1c-0.3-3.2-0.7-6.5-2.1-9.3c-0.7-1.3-1.6-2.7-2.9-4.2c-5.1-6-14.6-13.1-23.3-14.7
	c-7.3-1.3-15.6-2.8-23-0.4l0,0L81.5,55.2z M81.5,55.2L81.5,55.2L81.5,55.2z"/>
</svg>
