<?xml version="1.0" encoding="utf-8"?>
<!-- Generator: Adobe Illustrator 28.1.0, SVG Export Plug-In . SVG Version: 6.00 Build 0)  -->
<svg version="1.1" id="Layer_1" xmlns="http://www.w3.org/2000/svg" xmlns:xlink="http://www.w3.org/1999/xlink" x="0px" y="0px"
	 viewBox="0 0 240 240" style="enable-background:new 0 0 240 240;" xml:space="preserve">
<style type="text/css">
	.st0{fill:#FFFFFF;}
</style>
<path class="st0" d="M99.9,230.3c-6.7,0-13.8-0.2-20.4-0.4c-8-0.2-14.8-0.5-18.6-0.2c-13.1,0.9-24.9-2.8-33.2-10.6
	c-9-8.3-13.8-20.9-13.8-36.3c0-3.2-0.5-6.8-1.1-11c-0.9-6.3-1.8-13.4-1.7-22.4c0.2-10.9,1.1-20.9,1.8-29c0.5-5.3,0.9-9.8,0.9-13
	c0.2-9.4,0.1-26.3,0-38.7v-8.6c-0.1-29.5,13.7-43.3,44.7-44.8l0,0c3.9-0.2,8.4-0.5,13.3-0.8c15-1.1,33.7-2.4,53.3-1.2
	c14.3,0.8,52.3-1.7,52.7-1.7l0,0c25,0,46.2,19.8,49.5,46c0.2,1.6,0.5,3.5,0.8,5.6c1.3,9.3,3.1,22,2.3,28.6
	c-1.3,10.1-0.5,23.9,0.1,33.9c0.4,6.5,0.6,11.6,0.4,14.4c-2.7,25.9-2,30.7-1,38c0.2,1.4,0.4,2.8,0.6,4.5
	c1.3,11.5-2.8,23.4-11.3,32.4c-9.3,9.9-22.6,15.4-35.7,14.7c-29.3-1.5-51.9-1.4-69.2,0.1C109.9,230.2,105.1,230.3,99.9,230.3z
	 M65.5,224.6c3.9,0,8.8,0.2,14.2,0.3c11.6,0.4,24.7,0.8,34-0.1c17.5-1.6,40.4-1.6,69.9-0.1c11.6,0.6,23.5-4.3,31.8-13.2
	c7.6-8.1,11.1-18.2,10-28.4c-0.2-1.6-0.4-3.1-0.6-4.4c-1-7.6-1.7-12.7,1-39.2c0.2-2.4,0-7.6-0.4-13.6c-0.6-10.8-1.4-24.2,0-34.8
	c0.7-6-1-18.8-2.2-27.3c-0.3-2.1-0.6-4.1-0.8-5.7c-3-23.7-22.1-41.6-44.4-41.6c-1.4,0.1-38.6,2.6-53.2,1.7
	c-19.3-1.1-37.8,0.2-52.6,1.2c-4.9,0.3-9.4,0.7-13.4,0.8l0,0c-28.4,1.4-40,12.9-39.9,39.8v8.6c0.1,12.4,0.2,29.4,0,38.8
	c-0.1,3.3-0.5,7.9-0.9,13.3c-0.7,8-1.6,18-1.8,28.7C16,158,17,164.9,17.8,171c0.6,4.3,1.1,8.1,1.1,11.6c0.1,14,4.3,25.3,12.2,32.7
	c7.4,6.9,17.6,10.1,29.5,9.2C61.9,224.6,63.6,224.6,65.5,224.6z"/>
<path class="st0" d="M81.8,68.8C80.6,82.4,72.1,83,66.3,82.7s-16.7-4.3-16-15C51,56.9,66.9,52.4,66.9,52.4S82.9,56,81.8,68.8z"/>
<path class="st0" d="M79,55.6c-3.1-3-6.8-4.8-11.1-5.6c-5.3-0.9-8.1,1.4-12,4.7c-7.2,6.2-11,15.7-4.9,24.3s22.8,9,29.6,1.3
	c3.5-3.9,4.3-8.8,3.9-13.9c-0.5-6.1-3.2-9.6-7.7-13.6c-2.4-2.1-5.9,1.4-3.5,3.5c3.3,2.9,5.3,4.8,6.1,9.4c0.7,4.2,0.1,8.5-2.9,11.7
	c-3.2,3.3-8.6,3-13,2.7c-5-0.2-8.5-2.8-10.1-7.5c-2.1-6.4,2.3-10.8,6.7-14.6c2.9-2.5,5.6-3.9,9.6-2.5c1.6,0.6,4.3,2.4,5.6,3.6
	C77.8,61.4,81.4,57.9,79,55.6L79,55.6z"/>
<polygon class="st0" points="52.1,102.5 56.3,200.1 84.4,200.6 81.5,103.5 "/>
<path class="st0" d="M49.6,102.5c3.6,32.2,3.9,64.2,3.9,96.6c0,3.2,5,3.2,5,0c0-32.3-0.3-64.3-3.9-96.6
	C54.2,99.3,49.2,99.3,49.6,102.5L49.6,102.5z"/>
<path class="st0" d="M83.9,104.2c0.1-0.2,0.1-0.4,0.2-0.7c0.6-1.7-0.9-3-2.4-3.2c-9.9-0.9-19.8-0.8-29.7-0.8c-3.2,0-3.2,5,0,5
	c9.9,0,19.8-0.1,29.7,0.8c-0.8-1.1-1.6-2.1-2.4-3.2c-0.1,0.2-0.1,0.4-0.2,0.7C78.1,105.9,82.9,107.2,83.9,104.2L83.9,104.2z"/>
<path class="st0" d="M80.2,105.6c-1.9-0.4-0.7,18.9-0.7,20.3c0.3,8.7,0.1,17.5,0.7,26.2c1.1,15.3,1.8,31.2,1.7,46.6c0,3.2,5,3.2,5,0
	c0.1-31.8-2.7-63.6-3.3-95.4c0-1-0.8-2.2-1.8-2.4c-0.1,0-0.2,0-0.3-0.1C78.3,100.1,77,105,80.2,105.6L80.2,105.6z"/>
<path class="st0" d="M56.3,197.6c-0.1,0-0.2,0-0.2,0c0,1.7,0,3.3,0,5c6.3,0,12.5-0.1,18.7,0.3c3.1,0.2,7.3,1.2,10.3,0.1
	c-0.9-1.2-1.9-2.5-2.8-3.7c-0.1,0.2-0.3,0.4-0.4,0.6c-1.9,2.6,2.5,5.1,4.3,2.5c0.1-0.2,0.3-0.4,0.4-0.6c1.2-1.7-0.8-4.4-2.8-3.7
	c-3,1.1-7.8-0.4-10.9-0.6C67.3,197.2,61.7,197.5,56.3,197.6c-3.3-0.1-3.3,4.9-0.1,4.9c0.1,0,0.2,0,0.2,0
	C59.5,202.6,59.5,197.6,56.3,197.6L56.3,197.6z"/>
<path class="st0" d="M99.3,102.1l2.8,69.4l-0.3,30l24.6,1.5c0,0-0.2-19.6,0-21.4c0.2-1.8-3.7-31.1-1-33.7
	c2.7-2.6,12.6-15.2,14.1-14.7c1.4,0.5,14.9-3.9,14.9-3.9s8.7,3.2,9,3.4s6.5,9,6.5,9l1.7,16.3l0.6,37.6l3.7,4.4l18,0.7l1.5-37.2
	l-2-20.6l-7.3-30.1l-18.9-11l-27.9,4.6l-10.7,7.5l-3.3-12.1L99.3,102.1z"/>
<path class="st0" d="M96.9,102.8c3.5,14.2,1.8,31.3,2,45.8c0.3,17.4-0.9,35.6,0.4,52.8c0.1,1.8,2.1,3.3,3.8,2.2
	c0.3-0.2,0.7-0.5,1-0.7c2.7-1.8,0.2-6.1-2.5-4.3c-0.3,0.2-0.7,0.5-1,0.7c1.3,0.7,2.5,1.4,3.8,2.2c-1.4-18.5-0.3-38.3-0.4-56.9
	c-0.1-13.7,1-29.8-2.2-43.1C100.9,98.3,96.1,99.7,96.9,102.8L96.9,102.8z"/>
<path class="st0" d="M98.2,98.2c-0.1,0.1-0.1,0.2-0.2,0.3c-0.8,1-1.1,2.6,0,3.5c2.1,1.9,5.5,1.3,8.1,1.4c6.2,0.4,12.4-0.1,18.6,0.7
	c-0.6-1-1.2-2.1-1.7-3.1c-0.9,5,0.1,9.4,3.3,13.4c2,2.5,5.5-1,3.5-3.5c-1.9-2.4-2.5-5.5-2-8.5c0.2-1.2-0.3-2.9-1.7-3.1
	c-4.8-0.6-9.6-0.8-14.5-0.8c-2.2,0-4.4-0.2-6.6-0.3c-0.6,0-3.3,0.4-3.5,0.3c0,1.2,0,2.4,0,3.5c0.1-0.1,0.1-0.2,0.2-0.3
	C103.7,99.3,100.2,95.7,98.2,98.2L98.2,98.2z"/>
<path class="st0" d="M128,114.2c0,0.1,0,0.2,0,0.2c-0.1,2.6,3.3,3.2,4.7,1.3c6.6-9.5,26.6-12.1,36.6-10
	c17.1,3.6,18.1,17.4,20.9,32.1c2.2,11.2,2.6,22.9,2.4,34.3c-0.2,9-3.2,20.4-1.1,29.3c0.6,2.6,4,2.2,4.8,0c0-0.1,0.1-0.2,0.1-0.2
	c1.1-3-3.7-4.3-4.8-1.3c0,0.1-0.1,0.2-0.1,0.2c1.6,0,3.2,0,4.8,0c-1.8-7.3,1.1-16.3,1.2-23.9c0.2-8-0.1-16.1-0.5-24.1
	c-0.7-12.7-2.2-31.3-9.8-42c-5.9-8.3-17.7-11.4-27.6-10.7c-9.3,0.6-25.7,5.6-31.3,13.8c1.6,0.4,3.1,0.8,4.7,1.3c0-0.1,0-0.2,0-0.2
	C133.1,111,128.1,111,128,114.2L128,114.2z"/>
<path class="st0" d="M101.9,199.7c-0.2,0.1-0.4,0.3-0.6,0.4c-1.7,1.1-1.6,4.1,0.6,4.6c7.8,1.6,17.4,1.4,25.3-0.1
	c1.1-0.2,1.8-1.4,1.8-2.4c0.4-15.3-4.7-33.9-1.3-48.9c2.1-9.2,9.4-14.9,17.4-18.8c15-7.3,23.3,4.6,24.1,18.7
	c0.5,8.2,0.1,16.4,0.4,24.6c0.2,6.2-1.1,13.8,0.4,19.8c2.5,9.8,14.4,6.6,21.7,5.1c3.2-0.6,1.8-5.5-1.3-4.8
	c-5.8,1.2-13.3,3.1-15.6-3.2c-1.2-3.2,0-9.9-0.1-13.5c-0.4-10.9,0.5-22.3-0.9-33.1c-1.7-14.2-13-24.8-27.7-19.7
	c-6.4,2.2-12.3,7.1-17.2,11.5c-7.1,6.4-6.6,12.4-6.6,22c0,9.8,1.6,19.4,1.9,29.2c0.1,1.9,0.7,6.8-0.1,8.8c-0.4,1,3.6,1.1-3.2,0.7
	c-5.7-0.4-12.1,0.6-17.7-0.6c0.2,1.5,0.4,3,0.6,4.6c0.2-0.1,0.4-0.3,0.6-0.4C107.2,202.3,104.7,198,101.9,199.7L101.9,199.7z"/>
</svg>
