<?xml version="1.0" encoding="utf-8"?>
<!-- Generator: Adobe Illustrator 28.1.0, SVG Export Plug-In . SVG Version: 6.00 Build 0)  -->
<svg version="1.1" id="Layer_1" xmlns="http://www.w3.org/2000/svg" xmlns:xlink="http://www.w3.org/1999/xlink" x="0px" y="0px"
	 viewBox="0 0 240 240" style="enable-background:new 0 0 240 240;" xml:space="preserve">
<style type="text/css">
	.st0{fill:#FFFFFF;}
</style>
<path class="st0" d="M37.3,11.4c-14.2,0-25.8,11.6-25.8,25.8v165.4c0,14.2,11.6,25.8,25.8,25.8h165.4c14.2,0,25.8-11.6,25.8-25.8
	V37.3c0-14.2-11.6-25.8-25.8-25.8H37.3z M37.3,21.8h165.4c8.6,0,15.5,6.9,15.5,15.5v165.4c0,8.6-6.9,15.5-15.5,15.5H37.3
	c-8.6,0-15.5-6.9-15.5-15.5V37.3C21.8,28.7,28.7,21.8,37.3,21.8z M63.1,47.7c-5.7,0-10.8,1.7-14.5,4.9c-3.8,3.2-6.1,7.9-6.1,13
	c0,9.7,8.4,17.2,19,17.9c0,0,0,0,0,0c0.5,0.2,1,0.3,1.6,0.3c11.7,0,20.6-8.2,20.6-18.2c0-0.1,0-0.2,0-0.3
	C83.2,55.5,74.5,47.7,63.1,47.7z M63.1,57.9c7.2,0,10,3.2,10.3,7.8c-0.1,4.4-2.8,7.9-10.3,7.9c-7.2,0-10.4-3.7-10.4-8
	c0-2.2,0.8-3.8,2.4-5.2C56.8,59,59.5,57.9,63.1,57.9z M47.6,89c-2.9,0-5.2,2.3-5.2,5.2v98.2c0,2.9,2.3,5.2,5.2,5.2h31
	c2.9,0,5.2-2.3,5.2-5.2v-30.3V94.2c0-2.9-2.3-5.2-5.2-5.2H47.6z M94.2,89c-2.9,0-5.2,2.3-5.2,5.2v98.2c0,2.9,2.3,5.2,5.2,5.2h31
	c2.9,0,5.2-2.3,5.2-5.2v-51.7c0-4.3,1.2-8.6,3.2-11.3c2.1-2.8,4.7-4.5,9.6-4.4c5.1,0.1,7.8,1.8,9.8,4.6c2,2.7,3.2,6.8,3.2,11.2v51.7
	c0,2.9,2.3,5.2,5.2,5.2h31c2.9,0,5.2-2.3,5.2-5.2v-55.5c0-15.3-4.5-27.4-12.3-35.6c-7.8-8.2-18.6-12.2-30-12.2
	c-10.9,0-19.1,3.6-24.9,7.4v-2.2c0-2.9-2.3-5.2-5.2-5.2H94.2z M52.8,99.3h20.7v62.7v25.1H52.8V99.3z M99.3,99.3H120v8.1
	c0,2.9,2.3,5.2,5.2,5.2c1.6,0,3.2-0.8,4.1-2.1c0,0,8.1-11.2,25.9-11.2c9.1,0,16.8,3,22.5,9c5.7,6,9.5,15.2,9.5,28.5v50.3h-20.7
	v-46.5c0-6-1.4-12.3-5.2-17.3s-10.1-8.6-18-8.7c-7.9-0.1-14.3,3.5-18.1,8.6c-3.8,5.1-5.3,11.4-5.3,17.5v46.5H99.3V99.3z"/>
</svg>
