<?xml version="1.0" encoding="utf-8"?>
<!-- Generator: Adobe Illustrator 28.1.0, SVG Export Plug-In . SVG Version: 6.00 Build 0)  -->
<svg version="1.1" id="Layer_1" xmlns="http://www.w3.org/2000/svg" xmlns:xlink="http://www.w3.org/1999/xlink" x="0px" y="0px"
	 viewBox="0 0 240 240" style="enable-background:new 0 0 240 240;" xml:space="preserve">
<style type="text/css">
	.st0{fill:#FFFFFF;}
</style>
<path class="st0" d="M120,9C58.8,9,9,58.8,9,120s49.8,111,111,111s111-49.8,111-111S181.2,9,120,9z M120,18.7
	c56,0,101.3,45.3,101.3,101.3S176,221.3,120,221.3S18.7,176,18.7,120S64,18.7,120,18.7z M163.9,67.1c-3.3,0-7,0.8-11.3,2.3
	c-6.7,2.4-86,36.1-95,39.9c-5.2,2.2-14.8,6.3-14.8,16c0,6.4,3.8,11.1,11.2,13.7c4,1.4,13.5,4.3,19,5.8c2.3,0.6,4.8,1,7.4,1
	c5,0,10-1.2,14-3.4c0,0.8,0,1.6,0.1,2.5c0.6,5.1,3.7,9.8,8.4,12.8c3,1.9,27.8,18.5,31.5,21.1c5.2,3.7,10.9,5.7,16.6,5.7
	c10.8,0,14.4-11.2,16.2-16.5c2.5-7.8,12-71.1,13.1-82.3c0.7-7.6-2.5-13.9-8.5-16.9C169.3,67.6,166.7,67.1,163.9,67.1z M163.9,76.7
	c1.3,0,2.5,0.2,3.5,0.7c2.3,1.1,3.4,3.5,3.1,7.2c-1.2,12.2-10.6,74-12.6,80.2c-1.7,5.3-3.5,9.9-7,9.9c-3.5,0-7.3-1.2-11-3.9
	c-3.7-2.7-28.5-19.3-31.9-21.4c-3-1.9-6.2-6.6-1.7-11.2c3.7-3.8,31.8-31,34.2-33.4c1.8-1.8,1-3.9-0.8-3.9c-0.6,0-1.3,0.3-2.1,0.9
	c-2.9,2.4-43.8,29.8-47.4,32c-2.3,1.5-6,2.5-9.7,2.5c-1.6,0-3.2-0.2-4.8-0.6c-5.4-1.5-14.7-4.3-18.3-5.6c-3.5-1.3-4.8-2.5-4.8-4.6
	c0-3.1,4.3-5.2,8.9-7.1c4.8-2,88-37.4,94.5-39.7C158.8,77.4,161.5,76.7,163.9,76.7z"/>
</svg>
