<?xml version="1.0" encoding="utf-8"?>
<!-- Generator: Adobe Illustrator 28.1.0, SVG Export Plug-In . SVG Version: 6.00 Build 0)  -->
<svg version="1.1" id="Layer_1" xmlns="http://www.w3.org/2000/svg" xmlns:xlink="http://www.w3.org/1999/xlink" x="0px" y="0px"
	 viewBox="0 0 240 240" style="enable-background:new 0 0 240 240;" xml:space="preserve">
<style type="text/css">
	.st0{fill:none;stroke:#FFFFFF;stroke-width:5;stroke-miterlimit:50;}
	.st1{fill:#FFFFFF;}
	.st2{fill:none;stroke:#FFFFFF;stroke-width:5;stroke-linejoin:round;stroke-miterlimit:50;}
</style>
<path class="st0" d="M225.3,120c0,19.1-5.3,37.1-14.3,52.5c-9.2,15.9-21.5,30.9-37.5,40.2c-15.4,8.9-34.4,14.4-53.5,14.4
	s-37.8-5.8-53.3-14.8c-15.9-9.2-29.2-23.4-38.5-39.3c-8.9-15.4-11.4-33.8-11.4-53s3.4-37,12.3-52.4c9.3-15.9,22-30.2,37.9-39.4
	C82.4,19.3,100.9,16,120,16s36.9,4.5,52.3,13.5c15.9,9.2,27.7,23.1,36.9,39.1C218.2,83.9,225.3,100.9,225.3,120z"/>
<polygon class="st1" points="104.2,141.5 102.7,166.1 117.8,153.6 "/>
<path class="st2" d="M103.6,140.1c5.5,5.6,11.3,11,17.3,16.1"/>
<polygon class="st1" points="91.3,131.9 148.2,94.8 150.7,97.1 106,138.3 104,144.6 100.7,165.8 88.8,136 "/>
<path class="st2" d="M88.4,134.1c2.5,9.5,5.4,18.9,8.9,28.1c0.8,2,1.8,4.2,3.9,4.7c1.8,0.4,3.6-0.8,5.1-1.9
	c4.2-3.4,8.1-7.2,11.5-11.4c5.6,4.7,11.5,9,17.1,13.7c2.2,1.8,4.4,3.7,7.1,4.7c2.6,1,5.8,1.1,8.2-0.5c1.6-1.1,2.6-2.9,3.5-4.6
	c1.8-3.8,3.2-7.9,4.2-12c4-16.5,4.3-31.3,11.6-49.7c2.4-5.9,2.9-12.5,3.3-18.8c0.2-3.7-2.7-6.9-6.4-7c-4.4-0.2-8.8,1-13.1,2.3
	c-30.6,9.2-57.9,21.2-85.1,33.3c-2.5,1.1-5.2,2.1-7.2,4c-1.1,1.1-2,2.6-1.8,4.1c0.3,2.8,3.6,4.2,6.3,4.9
	C73.1,130,80.7,132.6,88.4,134.1z"/>
<path class="st2" d="M88.4,134.1c16.8-11.1,32.2-20.9,49-32c3.5-2.3,12.8-8.8,14.3-6.3c2.1,3.3-31.9,29.7-48.1,44.4
	c-0.8,8.6-1.4,17.3-1.9,26"/>
</svg>
