<?xml version="1.0" encoding="UTF-8"?><svg id="Layer_1" xmlns="http://www.w3.org/2000/svg" viewBox="0 0 100 100"><path d="M13.57,65.21c6.35,15.25,15.13,7.11,26.29,2.14,6.46-2.88,11.12-3.05,17.72-.61,7.51,2.78,16.13,5.12,22.84-1.39,15.11-14.66.62-45.29-17.42-41.68-6.11,1.22-10.77,7-16.74,8.15-5.8,1.12-10.63-5.06-15.53-7.69-8.66-4.65-15.32,1.97-18.48,11.56-3.32,10.05-2.44,19.94,1.33,29.52Z" fill="#e8e8f7" stroke-width="0"/><path d="M75.62,21.88h20.3c1.06,0,1.92.86,1.92,1.92v18.57c0,1.06-.86,1.92-1.92,1.92h-20.3c-1.06,0-1.92-.86-1.92-1.92v-18.57c0-1.06.86-1.92,1.92-1.92Z" fill="#734887" stroke-width="0"/><path d="M97.85,23.81v2.13h-24.15v-2.13c0-1.06.87-1.92,1.92-1.92h20.3c1.06,0,1.92.87,1.92,1.92Z" fill="#292f52" stroke-width="0"/><path d="M94.96,23.9c0,.37.3.67.67.67s.67-.3.67-.67-.3-.67-.67-.67-.67.3-.67.67Z" fill="#734887" stroke-width="0"/><path d="M94.96,23.9c0,.37.3.67.67.67s.67-.3.67-.67-.3-.67-.67-.67-.67.3-.67.67Z" fill="#734887" stroke-width="0"/><path d="M94.96,23.9c0,.37.3.67.67.67s.67-.3.67-.67-.3-.67-.67-.67-.67.3-.67.67Z" fill="#734887" stroke-width="0"/><path d="M92.44,23.9c0,.37.3.67.67.67s.67-.3.67-.67-.3-.67-.67-.67-.67.3-.67.67Z" fill="#734887" stroke-width="0"/><path d="M92.44,23.9c0,.37.3.67.67.67s.67-.3.67-.67-.3-.67-.67-.67-.67.3-.67.67Z" fill="#734887" stroke-width="0"/><path d="M92.44,23.9c0,.37.3.67.67.67s.67-.3.67-.67-.3-.67-.67-.67-.67.3-.67.67Z" fill="#734887" stroke-width="0"/><path d="M84.16,23.9c0,.37-.42.67-.93.67h-7.1c-.51,0-.93-.3-.93-.67s.42-.67.93-.67h7.1c.51,0,.93.3.93.67Z" fill="#cfd2d3" stroke-width="0"/><path d="M89.9,29.13h-13.41c-.27,0-.48-.22-.48-.48s.22-.48.48-.48h13.41c.27,0,.48.22.48.48s-.22.48-.48.48Z" fill="#e5e7e8" stroke-width="0"/><path d="M87.14,31.36h-8.08c-.27,0-.48-.22-.48-.48s.22-.48.48-.48h8.08c.27,0,.48.22.48.48s-.22.48-.48.48Z" fill="#e5e7e8" stroke-width="0"/><path d="M91.95,33.59h-12.89c-.27,0-.48-.22-.48-.48s.22-.48.48-.48h12.89c.27,0,.48.22.48.48s-.22.48-.48.48Z" fill="#e5e7e8" stroke-width="0"/><path d="M89.9,35.83h-7.31c-.27,0-.48-.22-.48-.48s.22-.48.48-.48h7.31c.27,0,.48.22.48.48s-.22.48-.48.48Z" fill="#e5e7e8" stroke-width="0"/><path d="M94.2,38.06h-15.14c-.27,0-.48-.22-.48-.48s.22-.48.48-.48h15.14c.27,0,.48.22.48.48s-.22.48-.48.48Z" fill="#e5e7e8" stroke-width="0"/><path d="M83.1,40.3h-6.61c-.27,0-.48-.22-.48-.48s.22-.48.48-.48h6.61c.27,0,.48.22.48.48s-.22.48-.48.48Z" fill="#e5e7e8" stroke-width="0"/><path d="M89.9,42.53h-10.84c-.27,0-.48-.22-.48-.48s.22-.48.48-.48h10.84c.27,0,.48.22.48.48s-.22.48-.48.48Z" fill="#e5e7e8" stroke-width="0"/><rect x="17.9" y="17.63" width="13.89" height="7.51" rx="1.85" ry="1.85" fill="#734887" stroke-width="0"/><path d="M27.55,23.84c-.11,0-.23-.04-.32-.13-.18-.18-.19-.47-.01-.65l1.6-1.68-1.6-1.68c-.18-.18-.17-.48.01-.65.18-.18.48-.17.65.01l1.91,2c.17.18.17.46,0,.64l-1.91,2c-.09.1-.21.14-.33.14Z" fill="#e5e7e8" stroke-width="0"/><path d="M22.14,23.84c-.12,0-.24-.05-.33-.14l-1.91-2c-.17-.18-.17-.46,0-.64l1.91-2c.18-.18.47-.19.65-.01.18.18.19.47.01.65l-1.6,1.68,1.6,1.68c.18.18.17.48-.01.65-.09.09-.2.13-.32.13Z" fill="#e5e7e8" stroke-width="0"/><path d="M24.09,23.84c-.05,0-.11,0-.16-.03-.24-.09-.36-.36-.27-.6l1.5-3.99c.09-.24.36-.36.6-.27.24.09.36.36.27.6l-1.5,3.99c-.07.19-.25.3-.43.3Z" fill="#e5e7e8" stroke-width="0"/><path d="M78.05,71.92c0,4.24-12.09,13.89-27.01,13.89s-27.01-9.65-27.01-13.89,12.09-7.69,27.01-7.69,27.01,3.44,27.01,7.68Z" fill="#d8d8e6" stroke-width="0"/><path d="M65.48,60.24c1.86.14,10.99,3.1,11.22,5.65s-19.21,13.77-27.73,13.65c-8.52-.12-24.81-10.65-24.23-13.15s6.74-5.86,10.53-6.15c4.74-.37,30.2,0,30.2,0Z" fill="#292f52" stroke-width="0"/><path d="M48.5,74.02c1.29.31,3.55,2.05,4.36,2.51s4.34,2.6,4.63,3.53.23,3.65-1.74,4.46-8.56-1.45-9.43-2.26c-.98-6.42,2.18-8.24,2.18-8.24Z" fill="#292f52" stroke-width="0"/><path d="M24.73,66.12c-.66.98-.85,4.92.02,6.31s10.24,7.64,21.06,9.84c-.35-1.62,3.45-6.39,4.22-7.23-7.91-3.89-19.26-10.47-25.29-8.91Z" fill="#3e4463" stroke-width="0"/><path d="M49.31,75.88c-4.96-.56-11.27,2.39-11.73,4.24-.46,1.85-.05,4.05,1.1,5.15s8.78.64,12.63-2.37c.79-3.12-2.01-7.02-2.01-7.02Z" fill="#292f52" stroke-width="0"/><path d="M49.24,76.77c-2.07-.08-6.1.98-7.26,2.02.69,1.79,1.22,4.4.64,5.27,2.31.41,6.81-.75,8.09-1.79.12-1.68-1.47-5.49-1.47-5.49Z" fill="#8a3eff" stroke-width="0"/><path d="M76.7,65.89c.89,1.5,1.39,5.44,0,6.83s-16.2,8.87-25.38,10.18c-1.39-1.31-2.39-6.25-2.01-7.02,6.17-4.71,20.13-10.88,27.39-9.99Z" fill="#3e4463" stroke-width="0"/><path d="M64.67,54.12c.25,3.12-1.33,3.47-2.43,4.22s-.75,3.01-.35,6.83c-2.49,1.97-15.97,4.92-23.43.93.17-1.1.29-4.11.12-5.44s-.81-2.08-3.07-3.41c-2.26-1.33.12-15.62,1.1-16.84.98-1.21,7.06-5.03,10.24-5.5,0,0,4.86-.29,6.83,0s9.08,3.65,10.99,5.84c1.91,2.2-.17,11.17,0,13.37Z" fill="#734887" stroke-width="0"/><path d="M57.88,66.39c.31-.08,6.79-1.16,9.64-3.24,4-2.92-1.24-20.44-2.58-21.98,0,0-1.03-1.69-3.95-3.08-2.23,1.34-1.7,7.49-1.53,8.74.5,3.82,2.08,9.09,2.43,10.3-.85.93-4.94,2.78-4.94,2.78l.93,6.48Z" fill="#ab91b7" stroke-width="0"/><path d="M43.06,66.78s-2.78.13-5.4-.77c-9.44-3.24-4.82-21.31-1.06-25.59,0,0,1.27-1.36,2.93-2.21,1.37.57,2.47,4.17,1.66,8.29-.75,3.86-1.83,11.34-1.83,12.11.85.62,3.32,1.85,3.32,1.85l.39,6.33Z" fill="#c7b6cf" stroke-width="0"/><path d="M63.2,68.78h-25.91l-1.12-16.29c6.72-1.06,22.54-1.06,28.16,0l-1.12,16.29Z" fill="#cfd2d3" stroke-width="0"/><path d="M51.97,60.24c0,.96-.78,1.74-1.74,1.74s-1.74-.78-1.74-1.74.78-1.74,1.74-1.74,1.74.78,1.74,1.74Z" fill="#e6e8e8" stroke-width="0"/><polygon points="63.2 68.78 63.2 70.13 37.26 70.13 37.28 68.78 63.2 68.78" fill="#a2a9ad" stroke-width="0"/><path d="M54.27,31.56c-.1,1.04-.19,3.63.46,4.55-2.51,2.2-7.33,1.77-8.91.27.35-1.23.35-3.78,0-4.59s4.09-1.43,4.09-1.43l4.36,1.2Z" fill="#ffa993" stroke-width="0"/><path d="M42.22,25.2c-3.09-7.33,1.52-7.56,1.52-7.56,1-3.37,7.25-3.89,9.33-3.16,3.43,1.2,5.8,4.86,4.24,10.47,0,0-1.93,8.42-6.59,8.41-4.67-.01-8.5-8.16-8.5-8.16Z" fill="#292f52" stroke-width="0"/><path d="M58.24,26.91c0,1.78-1.59,2.29-2.58,2.29s-.7-1.59-.7-2.59.14-2,1.13-2,2.16.46,2.16,2.3Z" fill="#ffa993" stroke-width="0"/><path d="M41.2,27.24c0,1.78,1.59,2.29,2.58,2.29s.7-1.59.7-2.59-.14-2-1.13-2-2.16.46-2.16,2.3Z" fill="#ffa993" stroke-width="0"/><path d="M51.88,34.79c-1.82.82-4.59.72-5.83,0,.02-.57.04-1.28,0-1.69,1.46.47,5.83,1.69,5.83,1.69Z" fill="#ff7d71" stroke-width="0"/><path d="M42.93,25.46c0,5.55,2.78,9.45,7.79,9.45s6.17-6.56,6.17-9.45-4.67-6.21-7.17-6.21c-6.09,0-6.79,6.21-6.79,6.21Z" fill="#ffb29e" stroke-width="0"/><path d="M42.93,26.91c2.04-1.29,2.58-3.42,3.05-3.68,2.69-1.54,4.56,1.17,8.33-.15,0,0,.77,2.38,2.58,3.11.08-1.53-1.87-4.15-3.02-5.19-1.15-1.04-7.82-2.19-9.06.31-1.23,2.5-1.89,5.61-1.89,5.61Z" fill="#ff7d71" stroke-width="0"/><path d="M42.93,26.91c1.5-.98,2.24-3.18,2.35-4.03,3.39-2.51,5.94.73,9.3-.23.27,1.23,1.5,3.05,2.31,3.53.15-.97.68-2.57.26-3.65-.42-1.08-.94-4.9-7.62-5.09-6.68-.19-7.68,4.09-7.53,5.4.15,1.31.93,4.07.93,4.07Z" fill="#292f52" stroke-width="0"/><ellipse cx="52.55" cy="27.26" rx=".43" ry=".74" fill="#292f52" stroke-width="0"/><ellipse cx="47.82" cy="27.26" rx=".43" ry=".74" fill="#292f52" stroke-width="0"/><path d="M51.96,24.6s0,0,0-.03c0-.02.01-.05.03-.08.03-.06.08-.15.15-.22.04-.04.08-.08.13-.11.05-.04.1-.07.16-.1.06-.02.12-.05.19-.06.07-.02.14-.02.21-.02.07,0,.14,0,.21.02.07,0,.14.03.2.06.06.02.12.06.17.1.05.03.09.07.13.12.08.08.12.16.15.23.03.06.03.11.03.11v.02s0,.02-.01.02c0,0,0,0-.01,0,0,0-.03-.01-.07-.03-.04-.02-.11-.05-.19-.08-.04-.02-.08-.03-.13-.04-.05-.01-.09-.03-.15-.03-.1-.02-.21-.03-.32-.02-.22,0-.44.05-.6.1-.16.05-.26.1-.26.1,0,0-.02,0-.03,0,0,0,0,0,0-.01v-.02Z" fill="#ff7167" stroke-width="0"/><path d="M46.69,24.6s0-.04.03-.1c.03-.06.07-.14.13-.21.03-.04.07-.08.11-.11.04-.03.09-.07.14-.09.1-.05.22-.09.35-.1.13,0,.26.01.38.06.12.05.23.12.3.21.04.04.06.09.08.13.02.04.03.08.04.11.01.07.01.11.01.11v.02s-.01.02-.02.02c0,0,0,0,0,0,0,0-.02-.01-.06-.04-.03-.03-.09-.05-.16-.08-.07-.03-.15-.05-.24-.06-.09-.01-.19-.01-.29,0-.2.01-.4.06-.54.11-.14.04-.24.08-.24.08,0,0-.02,0-.02,0,0,0,0,0,0-.01v-.02Z" fill="#ff7167" stroke-width="0"/><path d="M51.03,28.95s.01.03.03.09c.02.06.05.13.09.23.07.19.18.45.23.73.02.14.04.3,0,.45-.02.08-.06.15-.13.2-.06.05-.13.08-.19.09-.12.02-.21,0-.27-.02-.06-.02-.09-.03-.09-.03-.02,0-.03-.03-.02-.05,0-.01.02-.02.03-.02h0s.03,0,.09,0c.06,0,.14,0,.22-.04.08-.03.14-.08.15-.18.02-.1,0-.23-.02-.36-.05-.26-.13-.52-.17-.73-.02-.1-.03-.19-.03-.26,0-.07,0-.1,0-.1h0s.02-.04.04-.03c.01,0,.03.01.03.03Z" fill="#ff7167" stroke-width="0"/><path d="M48.71,31.82s.06.02.16.07c.05.03.11.05.17.07.06.02.14.05.22.07.08.03.18.05.27.07.1.02.2.03.31.05.11.01.22.02.34.03.11,0,.23.01.35,0,.12,0,.23,0,.35,0,.11-.01.23-.01.34-.03.11-.01.21-.03.31-.05.1-.02.19-.04.28-.06.08-.03.16-.05.23-.07.06-.03.13-.05.17-.07.09-.05.14-.07.14-.07h.01s.08,0,.1.03c.01.03,0,.06-.01.08,0,0-.04.05-.12.13-.09.08-.22.18-.4.27-.09.04-.19.09-.29.12-.11.04-.22.08-.34.1-.12.03-.24.05-.37.07-.13,0-.26.02-.39.02-.13,0-.26,0-.39-.02-.13-.01-.25-.04-.37-.06-.12-.03-.24-.06-.34-.1-.05-.02-.1-.04-.15-.06-.05-.02-.09-.05-.14-.07-.09-.04-.17-.09-.23-.14-.07-.05-.12-.09-.16-.13-.08-.08-.12-.12-.12-.12-.03-.03-.03-.08,0-.11.02-.02.05-.02.08-.01Z" fill="#ff7167" stroke-width="0"/><path d="M45.37,11.45c-.36-.28-.56-.69-.59-1.22-.06-.96.18-2.17.71-3.63h.04c-.16.53-.26.92-.3,1.17-.04.25-.05.48-.04.69,0,.14.08.27.21.4.14.13.34.22.6.3.27.07.59.1.98.08.55-.03,1.05-.09,1.5-.19.46-.09.79-.23,1-.4-.08.61-.18,1.12-.29,1.51-.11.39-.21.65-.28.76-.17.24-.44.44-.82.61-.38.17-.78.27-1.23.29-.65.04-1.16-.09-1.52-.37ZM47.43,5.69c-.14.23-.22.39-.26.5l-1.13-.68c.08-.09.19-.24.31-.46.12-.21.21-.38.25-.49l1.13.68c-.07.07-.17.22-.3.45ZM49.93,9.01c-.15-.06-.27-.15-.38-.29l-.03-.04-.02-.03-1.26-1.87c.09-.13.21-.38.38-.73.17-.35.28-.61.33-.78.14.34.28.6.42.76.14.17.3.28.49.34.19.06.45.08.78.06l.15,2.62h-.22c-.29.03-.5,0-.65-.05Z" fill="#e6e8e8" stroke-width="0"/><path d="M53.45,9.09c-.3-.17-.57-.38-.83-.63-.25-.24-.42-.46-.51-.66-.37.68-.65,1.06-.84,1.16-.1.05-.22.08-.34.1-.12.02-.23.02-.33.02-.05,0-.08-.12-.1-.36-.02-.23-.01-.56.02-.96.03-.41.08-.72.14-.95.06-.23.11-.34.16-.34.62.05,1.05.07,1.31.07.25,0,.46-.06.6-.15.15-.09.32-.26.51-.51.23.22.61.47,1.14.75.53.28,1,.46,1.42.56-.34.6-.67,1.12-.99,1.55-.32.43-.54.64-.65.63-.19-.01-.43-.11-.73-.28ZM55.61,4.8c.19.19.34.42.45.69s.16.51.14.72c0,.07-.04.2-.11.39-.07.19-.16.39-.28.59-.04-.11-.09-.22-.15-.32-.19-.37-.41-.67-.67-.91-.26-.24-.5-.37-.72-.39-.41-.03-.75.07-1.04.31.33-.4.58-.7.78-.89.19-.2.36-.33.51-.41.15-.07.31-.1.49-.08.2.01.39.12.58.31Z" fill="#e6e8e8" stroke-width="0"/><path d="M56.8,9.25c-.22-.37-.27-.92-.16-1.66.15-.9.24-1.56.29-1.99.04-.43.06-.75.04-.97-.02-.22-.07-.46-.16-.75.13-.1.33-.26.6-.49.27-.23.45-.42.56-.55.07.27.1.5.1.69,0,.19-.02.46-.07.81-.05.35-.16,1-.33,1.95-.06.33-.01.58.14.74.15.17.39.28.74.34l-.45,2.58c-.64-.11-1.08-.35-1.3-.72Z" fill="#e6e8e8" stroke-width="0"/><path d="M58.42,11.7c-.2.18-.33.31-.39.41l-.89-.97c.1-.06.25-.18.43-.35s.31-.3.38-.4l.89.97c-.08.05-.22.17-.42.35ZM58.5,10.01c-.19,0-.35-.02-.5-.06-.05-.01-.06-.13-.05-.37.01-.24.07-.55.16-.95.09-.4.19-.7.28-.92.09-.22.16-.32.21-.31.38.09.77.17,1.18.24.41.07.72.1.94.09-.55.82-.95,1.39-1.2,1.73-.25.33-.42.51-.5.52-.16.03-.34.05-.53.04ZM61.05,7.15c-.1.2-.21.39-.32.56l-.66-1.77c.15-.11.34-.28.57-.5.23-.22.39-.41.48-.55.09.57.14.97.15,1.2.01.23,0,.42-.03.58-.03.12-.09.28-.2.49Z" fill="#e6e8e8" stroke-width="0"/><path d="M69.45,8.22c.12.18.2.37.24.58.04.21.02.4-.04.56-.05.14-.31.43-.77.87-.05-.29-.2-.6-.44-.92-.24-.32-.5-.54-.78-.64-.18-.07-.48-.06-.91.02-.43.08-1.03.25-1.79.51l.2.08c.74.29,1.47.53,2.17.71.7.18,1.22.26,1.55.23-1.07,1.11-1.79,1.7-2.16,1.78-.38.08-.82.09-1.32,0-.5-.08-1.02-.22-1.57-.44-.27-.1-.5-.22-.69-.36l-.92.62-.04-.02.86-.68s-.03-.02-.06-.04c-.05-.13-.09-.34-.14-.62-.04-.28-.09-.65-.15-1.11-.08-.61-.13-1-.17-1.17l.02-.04c.32.16.65.31.98.46.33.15.78.33,1.33.55.12-.11.24-.31.35-.61.07-.19.15-.39.21-.61.07-.22.11-.36.13-.43.13-.45.23-.78.32-1-.13-.18-.21-.33-.23-.45s-.02-.23.02-.33c.13-.34.49-.73,1.07-1.17h.04c-.11.12-.19.2-.24.26-.05.06-.1.14-.13.22-.02.06-.02.13.01.23.03.09.12.23.27.43.15.19.38.46.69.81-.08.05-.19.13-.33.25-.14.12-.26.23-.35.34l-.14.48c-.05.17-.09.31-.13.39-.14.36-.58.74-1.33,1.13,1.08-.47,1.96-.81,2.63-1.03.68-.21,1.1-.29,1.27-.22.17.07.31.19.43.37Z" fill="#e6e8e8" stroke-width="0"/><path d="M68.94,13.31c-.1-.42.02-.96.36-1.63.41-.81.71-1.41.88-1.8.17-.39.29-.69.34-.9.05-.21.08-.47.08-.76.16-.05.4-.14.72-.29.33-.14.56-.26.7-.35-.02.27-.06.5-.11.69-.06.18-.16.43-.32.75-.16.32-.46.9-.91,1.76-.16.29-.19.54-.1.75s.29.39.6.55l-1.23,2.32c-.58-.3-.92-.67-1.01-1.09Z" fill="#e6e8e8" stroke-width="0"/><path d="M69.8,16.19c-.24.11-.41.2-.5.26l-.54-1.21c.12-.03.29-.1.52-.2.22-.1.39-.19.48-.26l.54,1.21c-.1.02-.27.09-.51.2ZM71.97,15.23c-.09-.32-.04-.65.17-.99.05-.08.09-.14.12-.18-.64.42-1.06.64-1.28.65-.32.01-.68-.11-1.11-.37-.04-.02-.02-.15.07-.37s.24-.5.45-.85c.21-.35.4-.61.56-.79.16-.18.26-.25.3-.23l.15.09c.6.37,1.03.61,1.3.73.27.12.45.17.53.14.1-.04.25-.12.46-.24.21-.12.41-.25.6-.39l.04.02-.73.68c-.04.1,0,.22.12.37s.26.28.44.39l-1.38,2.23-.07-.05c-.4-.25-.65-.53-.74-.85Z" fill="#e6e8e8" stroke-width="0"/><path d="M73.14,16.34c-.17-.08-.32-.16-.44-.25-.04-.03,0-.15.1-.36.1-.21.27-.49.51-.82.24-.33.44-.58.61-.74.17-.17.27-.24.31-.21.32.23.65.45,1,.67.35.22.63.37.84.44-.82.55-1.41.92-1.77,1.14-.36.21-.58.31-.66.29-.16-.03-.33-.09-.5-.16ZM76.59,14.68c-.17.15-.34.28-.51.4l.07-1.89c.18-.05.43-.13.72-.25.3-.12.52-.22.66-.32-.14.56-.25.95-.32,1.17-.08.22-.16.39-.25.52-.07.1-.19.22-.37.37ZM78.53,12.29c-.24.08-.4.15-.49.21l-.4-1.21c-.14.04-.3.09-.47.15-.17.06-.29.12-.37.16l-.43-1.28c.13-.02.31-.07.53-.15.22-.08.38-.14.48-.21l.4,1.21c.15-.04.31-.09.47-.15.17-.06.29-.12.37-.16l.43,1.28c-.11.02-.28.07-.51.15Z" fill="#e6e8e8" stroke-width="0"/><path d="M72.72,18.02c-.2-.77-.35-1.44-.48-2.02l.03-.03c.18.37.29.6.34.69.05.09.11.16.17.22.25.19.63.41,1.15.63.52.23,1.05.42,1.58.57.54.15.96.23,1.27.22-.5.51-.88.85-1.12,1.03-.24.18-.45.29-.62.32-.25.04-.56.06-.93.04-.37-.02-.68-.06-.95-.13-.1-.26-.25-.77-.44-1.54ZM78.05,16.57c-.08.28-.2.51-.33.68-.11.14-.42.49-.94,1.05l-.07-2.45c.21-.05.48-.17.84-.35s.63-.35.84-.5c-.14.77-.25,1.29-.33,1.57Z" fill="#e6e8e8" stroke-width="0"/><path d="M81.21,15.57c-.17.06-.32.12-.44.19l-.6.82c-.06.09-.25.35-.57.79-.32.44-.55.74-.69.9-.16.18-.33.33-.49.43-.16.11-.35.2-.56.27-.21.08-.56.19-1.05.35l-.03-.03c.25-.24.52-.52.79-.82.19-.22.41-.48.64-.8.23-.32.52-.72.86-1.21.54-.78.91-1.28,1.11-1.52-.06-.21-.08-.38-.06-.5.02-.12.06-.22.14-.31.24-.27.71-.51,1.41-.73l.03.03c-.14.06-.24.11-.31.15-.07.04-.14.09-.19.16-.04.05-.06.12-.06.22,0,.1.04.26.11.49s.19.56.37,1c-.09.02-.21.06-.38.12Z" fill="#e6e8e8" stroke-width="0"/></svg>