<?xml version="1.0" encoding="UTF-8"?><svg id="Layer_1" xmlns="http://www.w3.org/2000/svg" viewBox="0 0 100 100"><path d="M13.57,65.21c6.35,15.25,15.13,7.11,26.29,2.14,6.46-2.88,11.12-3.05,17.72-.61,7.51,2.78,16.13,5.12,22.84-1.39,15.11-14.66.62-45.29-17.42-41.68-6.11,1.22-10.77,7-16.74,8.15-5.8,1.12-10.63-5.06-15.53-7.69-8.66-4.65-15.32,1.97-18.48,11.56-3.32,10.05-2.44,19.94,1.33,29.52Z" fill="#e8e8f7" stroke-width="0"/><path d="M75.62,21.88h20.3c1.06,0,1.92.86,1.92,1.92v18.57c0,1.06-.86,1.92-1.92,1.92h-20.3c-1.06,0-1.92-.86-1.92-1.92v-18.57c0-1.06.86-1.92,1.92-1.92Z" fill="#686957" stroke-width="0"/><path d="M97.85,23.81v2.13h-24.15v-2.13c0-1.06.87-1.92,1.92-1.92h20.3c1.06,0,1.92.87,1.92,1.92Z" fill="#292f52" stroke-width="0"/><path d="M94.96,23.9c0,.37.3.67.67.67s.67-.3.67-.67-.3-.67-.67-.67-.67.3-.67.67Z" fill="#686957" stroke-width="0"/><path d="M92.44,23.9c0,.37.3.67.67.67s.67-.3.67-.67-.3-.67-.67-.67-.67.3-.67.67Z" fill="#686957" stroke-width="0"/><path d="M84.16,23.9c0,.37-.42.67-.93.67h-7.1c-.51,0-.93-.3-.93-.67s.42-.67.93-.67h7.1c.51,0,.93.3.93.67Z" fill="#cfd2d3" stroke-width="0"/><path d="M89.9,29.13h-13.41c-.27,0-.48-.22-.48-.48s.22-.48.48-.48h13.41c.27,0,.48.22.48.48s-.22.48-.48.48Z" fill="#e5e7e8" stroke-width="0"/><path d="M87.14,31.36h-8.08c-.27,0-.48-.22-.48-.48s.22-.48.48-.48h8.08c.27,0,.48.22.48.48s-.22.48-.48.48Z" fill="#e5e7e8" stroke-width="0"/><path d="M91.95,33.59h-12.89c-.27,0-.48-.22-.48-.48s.22-.48.48-.48h12.89c.27,0,.48.22.48.48s-.22.48-.48.48Z" fill="#e5e7e8" stroke-width="0"/><path d="M89.9,35.83h-7.31c-.27,0-.48-.22-.48-.48s.22-.48.48-.48h7.31c.27,0,.48.22.48.48s-.22.48-.48.48Z" fill="#e5e7e8" stroke-width="0"/><path d="M94.2,38.06h-15.14c-.27,0-.48-.22-.48-.48s.22-.48.48-.48h15.14c.27,0,.48.22.48.48s-.22.48-.48.48Z" fill="#e5e7e8" stroke-width="0"/><path d="M83.1,40.3h-6.61c-.27,0-.48-.22-.48-.48s.22-.48.48-.48h6.61c.27,0,.48.22.48.48s-.22.48-.48.48Z" fill="#e5e7e8" stroke-width="0"/><path d="M89.9,42.53h-10.84c-.27,0-.48-.22-.48-.48s.22-.48.48-.48h10.84c.27,0,.48.22.48.48s-.22.48-.48.48Z" fill="#e5e7e8" stroke-width="0"/><rect x="17.9" y="17.63" width="13.89" height="7.51" rx="1.85" ry="1.85" fill="#686957" stroke-width="0"/><path d="M27.55,23.84c-.11,0-.23-.04-.32-.13-.18-.18-.19-.47-.01-.65l1.6-1.68-1.6-1.68c-.18-.18-.17-.48.01-.65.18-.18.48-.17.65.01l1.91,2c.17.18.17.46,0,.64l-1.91,2c-.09.1-.21.14-.33.14Z" fill="#e5e7e8" stroke-width="0"/><path d="M22.14,23.84c-.12,0-.24-.05-.33-.14l-1.91-2c-.17-.18-.17-.46,0-.64l1.91-2c.18-.18.47-.19.65-.01.18.18.19.47.01.65l-1.6,1.68,1.6,1.68c.18.18.17.48-.01.65-.09.09-.2.13-.32.13Z" fill="#e5e7e8" stroke-width="0"/><path d="M24.09,23.84c-.05,0-.11,0-.16-.03-.24-.09-.36-.36-.27-.6l1.5-3.99c.09-.24.36-.36.6-.27.24.09.36.36.27.6l-1.5,3.99c-.07.19-.25.3-.43.3Z" fill="#e5e7e8" stroke-width="0"/><path d="M78.05,71.92c0,4.24-12.09,13.89-27.01,13.89s-27.01-9.65-27.01-13.89,12.09-7.69,27.01-7.69,27.01,3.44,27.01,7.68Z" fill="#d8d8e6" stroke-width="0"/><path d="M65.48,60.24c1.86.14,10.99,3.1,11.22,5.65s-19.21,13.77-27.73,13.65c-8.52-.12-24.81-10.65-24.23-13.15s6.74-5.86,10.53-6.15c4.74-.37,30.2,0,30.2,0Z" fill="#292f52" stroke-width="0"/><path d="M48.5,74.02c1.29.31,3.55,2.05,4.36,2.51s4.34,2.6,4.63,3.53.23,3.65-1.74,4.46-8.56-1.45-9.43-2.26c-.98-6.42,2.18-8.24,2.18-8.24Z" fill="#292f52" stroke-width="0"/><path d="M24.73,66.12c-.66.98-.85,4.92.02,6.31s10.24,7.64,21.06,9.84c-.35-1.62,3.45-6.39,4.22-7.23-7.91-3.89-19.26-10.47-25.29-8.91Z" fill="#3e4463" stroke-width="0"/><path d="M49.31,75.88c-4.96-.56-11.27,2.39-11.73,4.24-.46,1.85-.05,4.05,1.1,5.15s8.78.64,12.63-2.37c.79-3.12-2.01-7.02-2.01-7.02Z" fill="#292f52" stroke-width="0"/><path d="M49.24,76.77c-2.07-.08-6.1.98-7.26,2.02.69,1.79,1.22,4.4.64,5.27,2.31.41,6.81-.75,8.09-1.79.12-1.68-1.47-5.49-1.47-5.49Z" fill="#8a3eff" stroke-width="0"/><path d="M76.7,65.89c.89,1.5,1.39,5.44,0,6.83s-16.2,8.87-25.38,10.18c-1.39-1.31-2.39-6.25-2.01-7.02,6.17-4.71,20.13-10.88,27.39-9.99Z" fill="#3e4463" stroke-width="0"/><path d="M64.67,54.12c.25,3.12-1.33,3.47-2.43,4.22s-.75,3.01-.35,6.83c-2.49,1.97-15.97,4.92-23.43.93.17-1.1.29-4.11.12-5.44s-.81-2.08-3.07-3.41c-2.26-1.33.12-15.62,1.1-16.84.98-1.21,7.06-5.03,10.24-5.5,0,0,4.86-.29,6.83,0s9.08,3.65,10.99,5.84c1.91,2.2-.17,11.17,0,13.37Z" fill="#5f6052" stroke-width="0"/><path d="M57.88,66.39c.31-.08,6.79-1.16,9.64-3.24,4-2.92-1.24-20.44-2.58-21.98,0,0-1.03-1.69-3.95-3.08-2.23,1.34-1.7,7.49-1.53,8.74.5,3.82,2.08,9.09,2.43,10.3-.85.93-4.94,2.78-4.94,2.78l.93,6.48Z" fill="#686957" stroke-width="0"/><path d="M43.06,66.78s-2.78.13-5.4-.77c-9.44-3.24-4.82-21.31-1.06-25.59,0,0,1.27-1.36,2.93-2.21,1.37.57,2.47,4.17,1.66,8.29-.75,3.86-1.83,11.34-1.83,12.11.85.62,3.32,1.85,3.32,1.85l.39,6.33Z" fill="#686957" stroke-width="0"/><path d="M63.2,68.78h-25.91l-1.12-16.29c6.72-1.06,22.54-1.06,28.16,0l-1.12,16.29Z" fill="#cfd2d3" stroke-width="0"/><path d="M51.97,60.24c0,.96-.78,1.74-1.74,1.74s-1.74-.78-1.74-1.74.78-1.74,1.74-1.74,1.74.78,1.74,1.74Z" fill="#e6e8e8" stroke-width="0"/><polygon points="63.2 68.78 63.2 70.13 37.26 70.13 37.28 68.78 63.2 68.78" fill="#a2a9ad" stroke-width="0"/><path d="M54.27,31.56c-.1,1.04-.19,3.63.46,4.55-2.51,2.2-7.33,1.77-8.91.27.35-1.23.35-3.78,0-4.59s4.09-1.43,4.09-1.43l4.36,1.2Z" fill="#ffa993" stroke-width="0"/><path d="M42.22,25.2c-3.09-7.33,1.52-7.56,1.52-7.56,1-3.37,7.25-3.89,9.33-3.16,3.43,1.2,5.8,4.86,4.24,10.47,0,0-1.93,8.42-6.59,8.41-4.67-.01-8.5-8.16-8.5-8.16Z" fill="#292f52" stroke-width="0"/><path d="M58.24,26.91c0,1.78-1.59,2.29-2.58,2.29s-.7-1.59-.7-2.59.14-2,1.13-2,2.16.46,2.16,2.3Z" fill="#ffa993" stroke-width="0"/><path d="M41.2,27.24c0,1.78,1.59,2.29,2.58,2.29s.7-1.59.7-2.59-.14-2-1.13-2-2.16.46-2.16,2.3Z" fill="#ffa993" stroke-width="0"/><path d="M51.88,34.79c-1.82.82-4.59.72-5.83,0,.02-.57.04-1.28,0-1.69,1.46.47,5.83,1.69,5.83,1.69Z" fill="#ff7d71" stroke-width="0"/><path d="M42.93,25.46c0,5.55,2.78,9.45,7.79,9.45s6.17-6.56,6.17-9.45-4.67-6.21-7.17-6.21c-6.09,0-6.79,6.21-6.79,6.21Z" fill="#ffb29e" stroke-width="0"/><path d="M42.93,26.91c2.04-1.29,2.58-3.42,3.05-3.68,2.69-1.54,4.56,1.17,8.33-.15,0,0,.77,2.38,2.58,3.11.08-1.53-1.87-4.15-3.02-5.19-1.15-1.04-7.82-2.19-9.06.31-1.23,2.5-1.89,5.61-1.89,5.61Z" fill="#ff7d71" stroke-width="0"/><path d="M42.93,26.91c1.5-.98,2.24-3.18,2.35-4.03,3.39-2.51,5.94.73,9.3-.23.27,1.23,1.5,3.05,2.31,3.53.15-.97.68-2.57.26-3.65-.42-1.08-.94-4.9-7.62-5.09-6.68-.19-7.68,4.09-7.53,5.4.15,1.31.93,4.07.93,4.07Z" fill="#292f52" stroke-width="0"/><ellipse cx="52.55" cy="27.26" rx=".43" ry=".74" fill="#292f52" stroke-width="0"/><ellipse cx="47.82" cy="27.26" rx=".43" ry=".74" fill="#292f52" stroke-width="0"/><path d="M51.96,24.6s0,0,0-.03c0-.02.01-.05.03-.08.03-.06.08-.15.15-.22.04-.04.08-.08.13-.11.05-.04.1-.07.16-.1.06-.02.12-.05.19-.06.07-.02.14-.02.21-.02.07,0,.14,0,.21.02.07,0,.14.03.2.06.06.02.12.06.17.1.05.03.09.07.13.12.08.08.12.16.15.23.03.06.03.11.03.11v.02s0,.02-.01.02c0,0,0,0-.01,0,0,0-.03-.01-.07-.03-.04-.02-.11-.05-.19-.08-.04-.02-.08-.03-.13-.04-.05-.01-.09-.03-.15-.03-.1-.02-.21-.03-.32-.02-.22,0-.44.05-.6.1-.16.05-.26.1-.26.1,0,0-.02,0-.03,0,0,0,0,0,0-.01v-.02Z" fill="#ff7167" stroke-width="0"/><path d="M46.69,24.6s0-.04.03-.1c.03-.06.07-.14.13-.21.03-.04.07-.08.11-.11.04-.03.09-.07.14-.09.1-.05.22-.09.35-.1.13,0,.26.01.38.06.12.05.23.12.3.21.04.04.06.09.08.13.02.04.03.08.04.11.01.07.01.11.01.11v.02s-.01.02-.02.02c0,0,0,0,0,0,0,0-.02-.01-.06-.04-.03-.03-.09-.05-.16-.08-.07-.03-.15-.05-.24-.06-.09-.01-.19-.01-.29,0-.2.01-.4.06-.54.11-.14.04-.24.08-.24.08,0,0-.02,0-.02,0,0,0,0,0,0-.01v-.02Z" fill="#ff7167" stroke-width="0"/><path d="M51.03,28.95s.01.03.03.09c.02.06.05.13.09.23.07.19.18.45.23.73.02.14.04.3,0,.45-.02.08-.06.15-.13.2-.06.05-.13.08-.19.09-.12.02-.21,0-.27-.02-.06-.02-.09-.03-.09-.03-.02,0-.03-.03-.02-.05,0-.01.02-.02.03-.02h0s.03,0,.09,0c.06,0,.14,0,.22-.04.08-.03.14-.08.15-.18.02-.1,0-.23-.02-.36-.05-.26-.13-.52-.17-.73-.02-.1-.03-.19-.03-.26,0-.07,0-.1,0-.1h0s.02-.04.04-.03c.01,0,.03.01.03.03Z" fill="#ff7167" stroke-width="0"/><path d="M48.71,31.82s.06.02.16.07c.05.03.11.05.17.07.06.02.14.05.22.07.08.03.18.05.27.07.1.02.2.03.31.05.11.01.22.02.34.03.11,0,.23.01.35,0,.12,0,.23,0,.35,0,.11-.01.23-.01.34-.03.11-.01.21-.03.31-.05.1-.02.19-.04.28-.06.08-.03.16-.05.23-.07.06-.03.13-.05.17-.07.09-.05.14-.07.14-.07h.01s.08,0,.1.03c.01.03,0,.06-.01.08,0,0-.04.05-.12.13-.09.08-.22.18-.4.27-.09.04-.19.09-.29.12-.11.04-.22.08-.34.1-.12.03-.24.05-.37.07-.13,0-.26.02-.39.02-.13,0-.26,0-.39-.02-.13-.01-.25-.04-.37-.06-.12-.03-.24-.06-.34-.1-.05-.02-.1-.04-.15-.06-.05-.02-.09-.05-.14-.07-.09-.04-.17-.09-.23-.14-.07-.05-.12-.09-.16-.13-.08-.08-.12-.12-.12-.12-.03-.03-.03-.08,0-.11.02-.02.05-.02.08-.01Z" fill="#ff7167" stroke-width="0"/><path d="M43.34,9.24c-.33-.28-.55-.79-.67-1.53-.14-.9-.26-1.56-.35-1.98-.09-.42-.18-.73-.26-.93-.08-.2-.21-.42-.38-.66.1-.13.24-.35.42-.66.18-.31.3-.54.36-.69.15.23.25.44.31.62.06.18.13.45.19.8.06.35.16,1,.29,1.96.05.33.17.55.36.66.19.11.46.15.81.1l.37,2.6c-.65.09-1.13,0-1.46-.29Z" fill="#e6e8e8" stroke-width="0"/><path d="M47.01,4.03c.26.15.6.32,1.01.53.36.17.63.31.82.42.19.11.35.25.47.4.12.15.19.34.21.56,0,.11-.01.24-.05.42-.04.17-.09.33-.15.47,0-.02-.01-.06-.03-.13-.05-.2-.17-.35-.36-.47s-.5-.27-.94-.45l-.56-.24v.06c0,.08,0,.16-.02.26-.02.09-.03.16-.04.19-.08-.2-.21-.39-.39-.58-.18-.18-.38-.32-.59-.41-.21.04-.39.11-.55.19-.16.09-.28.18-.37.29-.09.1-.13.2-.12.29.02.32.35.56.97.73.49-.14.85-.32,1.06-.52l-.12.53c.42.04,1.11.13,2.06.26l-1.01,2.52c-.31-.08-.67-.16-1.08-.24-.41-.08-.82-.13-1.22-.17-.38.31-.82.48-1.32.52-.05,0-.1-.11-.15-.34-.06-.23-.1-.55-.13-.96s-.03-.73,0-.96c.03-.24.06-.35.11-.36h.13c.2-.02.34-.04.44-.05l.03-.26c.03-.28.12-.58.25-.92.14-.34.29-.64.48-.9-.16-.09-.37-.22-.61-.38.12-.08.3-.22.52-.41.22-.19.38-.34.47-.44.28.22.55.4.81.54Z" fill="#e6e8e8" stroke-width="0"/><path d="M48.48,10.78c-.62-.49-1.16-.92-1.62-1.31v-.04c.37.18.6.3.69.34.09.04.18.06.27.06.31,0,.75-.07,1.3-.2.55-.14,1.08-.31,1.6-.52.52-.21.9-.41,1.14-.6-.09.71-.17,1.21-.25,1.5-.08.29-.18.5-.29.63-.17.19-.41.39-.71.6-.3.21-.58.37-.83.48-.24-.14-.67-.46-1.29-.95ZM51.8,6.36c.11.27.16.52.16.74,0,.18-.03.64-.1,1.4l-1.56-1.89c.13-.17.28-.43.44-.79.17-.36.28-.66.36-.91.36.69.6,1.17.7,1.45Z" fill="#e6e8e8" stroke-width="0"/><path d="M52.71,8.79c-.26-.34-.37-.89-.33-1.64.05-.91.08-1.58.08-2s-.02-.75-.06-.96c-.04-.21-.12-.46-.23-.73.12-.11.31-.29.55-.55.24-.26.41-.46.5-.6.09.26.15.48.18.67.02.19.03.46.01.82-.02.35-.06,1.01-.13,1.98-.02.33.05.57.21.73.16.15.42.24.77.26l-.19,2.62c-.65-.05-1.11-.24-1.37-.59Z" fill="#e6e8e8" stroke-width="0"/><path d="M54.17,7.05c.08-.22.14-.33.18-.33,1.48.23,2.32.32,2.52.3-.57,1.39-.98,2.13-1.23,2.24-.19.08-.42.12-.69.13-.27,0-.6-.02-1-.08-.05,0-.07-.13-.08-.37,0-.24.02-.56.08-.96.06-.4.13-.72.21-.94ZM60.14,3.01c-.11.15-.23.35-.37.6s-.23.45-.31.62l-.27.62h-.04s.18-.62.18-.62l-3.69.12.3.27c.37.33.63.58.79.73.16.15.28.29.36.41.08.12.11.23.1.33-.03.21-.14.52-.32.92-.62-.49-1.4-1.13-2.36-1.91l1.17-1.85,4.46-.25Z" fill="#e6e8e8" stroke-width="0"/><path d="M61.58,7.72c.47.14.84.24,1.12.31.28.06.5.09.68.09-.51.75-.88,1.27-1.13,1.55-.25.28-.5.45-.75.49-.25.04-.6,0-1.06-.14-.23-.07-.45-.18-.63-.33-.19-.15-.31-.29-.37-.43l1.4-1.95c.08.15.33.28.75.41ZM64.24,8.52c.11.3.4.53.87.67l-.75,2.51c-.44-.13-.77-.32-.99-.57-.22-.25-.33-.62-.34-1.1,0-.48.11-1.12.35-1.91.13-.44.22-.83.27-1.15-.39.1-.81.17-1.25.22-.44.05-.96.09-1.57.13.19-.19.33-.33.43-.42.1-.09.2-.13.28-.14.94-.12,1.66-.29,2.16-.51,0-.17-.02-.35-.06-.55.13-.07.32-.2.56-.38.24-.18.41-.33.51-.45.03.18.04.35.04.52,0,.17-.04.39-.1.67s-.17.67-.32,1.17c-.17.56-.2,1-.09,1.3Z" fill="#e6e8e8" stroke-width="0"/><path d="M64.7,11.86c-.18-.04-.35-.08-.49-.14-.04-.02-.04-.14.01-.37.05-.23.15-.54.31-.91s.29-.67.42-.87c.12-.2.21-.29.25-.27.36.15.74.29,1.13.42.39.13.7.21.92.23-.67.72-1.15,1.23-1.45,1.52-.3.29-.49.44-.58.44-.17,0-.34,0-.53-.04ZM67.66,9.44c-.13.18-.27.35-.4.5l-.37-1.85c.17-.09.38-.22.64-.41.26-.18.45-.34.56-.47,0,.58-.02.98-.04,1.21-.02.23-.06.42-.12.56-.05.11-.14.26-.27.45ZM68.32,6.36c-.22.15-.37.26-.45.34l-.73-1.1c.12-.05.27-.14.48-.28.21-.14.35-.25.44-.34l.73,1.1c-.09.04-.25.13-.47.28Z" fill="#e6e8e8" stroke-width="0"/><path d="M71.61,12.24l-1.17,2.35c-.31-.16-.5-.4-.57-.73-.38.52-.65.87-.81,1.06-.17.18-.32.3-.47.37-.24.1-.54.17-.9.23-.36.06-.68.08-.96.07-.15-.23-.4-.7-.75-1.42-.35-.71-.64-1.34-.88-1.88l.02-.04c.24.32.4.52.47.61.07.08.14.14.21.18.27.13.66.26,1.18.38.52.12,1.06.22,1.6.29.55.07.97.11,1.27.11l.07-.14c-.35,0-.7-.03-1.07-.11-.37-.08-.67-.17-.92-.3-.36-.18-.59-.39-.71-.63-.11-.24-.08-.53.08-.85.17-.33.5-.79,1.01-1.35.01.13.08.27.22.4.14.13.36.28.68.44.48.24.84.41,1.07.5-.08-.77-.38-1.28-.89-1.54-.16-.08-.33-.1-.51-.07-.18.03-.37.12-.57.27.48-.53.89-.88,1.23-1.06.34-.18.64-.2.9-.08.22.11.39.31.51.59.12.28.17.6.16.97-.01.36-.08.71-.22,1.06l.71.35Z" fill="#e6e8e8" stroke-width="0"/><path d="M72.76,15.86c-.17-.3-.31-.62-.41-.96-.1-.34-.14-.61-.11-.83-.66.4-1.09.6-1.31.59-.12,0-.23-.03-.35-.08s-.21-.09-.29-.15c-.04-.03,0-.15.09-.36.1-.21.26-.49.49-.83.23-.34.43-.59.6-.76.17-.17.27-.24.31-.21.51.35.88.58,1.1.7.22.12.42.18.6.17.17,0,.4-.07.69-.19.09.31.3.72.62,1.22.32.5.64.9.96,1.2-.59.36-1.13.64-1.63.86-.49.22-.78.29-.88.23-.15-.11-.32-.31-.49-.61ZM75.47,17.77c-.09-.21-.11-.5-.06-.85.04-.35.16-.87.35-1.54.07-.45.1-.81.1-1.07,0-.26-.04-.47-.11-.61-.07-.14-.17-.25-.29-.34-.22-.15-.44-.26-.67-.34-.22-.07-.42-.09-.6-.06.66-.25,1.17-.39,1.54-.4.37-.01.68.07.95.26.12.08.21.2.26.33.05.14.07.34.06.61-.01.27-.07.65-.16,1.14-.05.3-.03.55.08.73.11.19.3.37.57.56l-1.49,2.16c-.26-.18-.43-.37-.52-.59Z" fill="#e6e8e8" stroke-width="0"/><path d="M76.22,18.66c-.16-.09-.3-.19-.42-.29-.04-.03,0-.15.13-.35.12-.2.32-.46.59-.77.27-.31.49-.54.68-.68s.29-.21.33-.18c.29.26.61.51.94.76.33.25.59.42.79.51-.86.47-1.49.79-1.86.97-.38.18-.61.25-.69.23-.16-.05-.32-.12-.49-.21ZM79.81,17.32c-.18.13-.37.25-.54.35l.24-1.88c.19-.03.43-.09.74-.18.31-.09.54-.18.69-.26-.19.55-.33.92-.43,1.13-.1.21-.19.38-.3.5-.08.09-.21.21-.4.34ZM81.42,14.62c-.26.07-.43.13-.53.18l-.34-1.28c.12,0,.3-.05.54-.11.24-.07.41-.13.52-.18l.34,1.28c-.1,0-.28.04-.53.11Z" fill="#e6e8e8" stroke-width="0"/></svg>