<?xml version="1.0" encoding="UTF-8"?><svg id="Layer_1" xmlns="http://www.w3.org/2000/svg" viewBox="0 0 100 100"><path d="M13.57,65.21c6.35,15.25,15.13,7.11,26.29,2.14,6.46-2.88,11.12-3.05,17.72-.61,7.51,2.78,16.13,5.12,22.84-1.39,15.11-14.66.62-45.29-17.42-41.68-6.11,1.22-10.77,7-16.74,8.15-5.8,1.12-10.63-5.06-15.53-7.69-8.66-4.65-15.32,1.97-18.48,11.56-3.32,10.05-2.44,19.94,1.33,29.52Z" fill="#e8e8f7" stroke-width="0"/><path d="M75.62,21.88h20.3c1.06,0,1.92.86,1.92,1.92v18.57c0,1.06-.86,1.92-1.92,1.92h-20.3c-1.06,0-1.92-.86-1.92-1.92v-18.57c0-1.06.86-1.92,1.92-1.92Z" fill="#f5916a" stroke-width="0"/><path d="M97.85,23.81v2.13h-24.15v-2.13c0-1.06.87-1.92,1.92-1.92h20.3c1.06,0,1.92.87,1.92,1.92Z" fill="#292f52" stroke-width="0"/><path d="M94.96,23.9c0,.37.3.67.67.67s.67-.3.67-.67-.3-.67-.67-.67-.67.3-.67.67Z" fill="#686957" stroke-width="0"/><path d="M92.44,23.9c0,.37.3.67.67.67s.67-.3.67-.67-.3-.67-.67-.67-.67.3-.67.67Z" fill="#686957" stroke-width="0"/><path d="M84.16,23.9c0,.37-.42.67-.93.67h-7.1c-.51,0-.93-.3-.93-.67s.42-.67.93-.67h7.1c.51,0,.93.3.93.67Z" fill="#cfd2d3" stroke-width="0"/><path d="M89.9,29.13h-13.41c-.27,0-.48-.22-.48-.48s.22-.48.48-.48h13.41c.27,0,.48.22.48.48s-.22.48-.48.48Z" fill="#e5e7e8" stroke-width="0"/><path d="M87.14,31.36h-8.08c-.27,0-.48-.22-.48-.48s.22-.48.48-.48h8.08c.27,0,.48.22.48.48s-.22.48-.48.48Z" fill="#e5e7e8" stroke-width="0"/><path d="M91.95,33.59h-12.89c-.27,0-.48-.22-.48-.48s.22-.48.48-.48h12.89c.27,0,.48.22.48.48s-.22.48-.48.48Z" fill="#e5e7e8" stroke-width="0"/><path d="M89.9,35.83h-7.31c-.27,0-.48-.22-.48-.48s.22-.48.48-.48h7.31c.27,0,.48.22.48.48s-.22.48-.48.48Z" fill="#e5e7e8" stroke-width="0"/><path d="M94.2,38.06h-15.14c-.27,0-.48-.22-.48-.48s.22-.48.48-.48h15.14c.27,0,.48.22.48.48s-.22.48-.48.48Z" fill="#e5e7e8" stroke-width="0"/><path d="M83.1,40.3h-6.61c-.27,0-.48-.22-.48-.48s.22-.48.48-.48h6.61c.27,0,.48.22.48.48s-.22.48-.48.48Z" fill="#e5e7e8" stroke-width="0"/><path d="M89.9,42.53h-10.84c-.27,0-.48-.22-.48-.48s.22-.48.48-.48h10.84c.27,0,.48.22.48.48s-.22.48-.48.48Z" fill="#e5e7e8" stroke-width="0"/><rect x="17.9" y="17.63" width="13.89" height="7.51" rx="1.85" ry="1.85" fill="#f5916a" stroke-width="0"/><path d="M27.55,23.84c-.11,0-.23-.04-.32-.13-.18-.18-.19-.47-.01-.65l1.6-1.68-1.6-1.68c-.18-.18-.17-.48.01-.65.18-.18.48-.17.65.01l1.91,2c.17.18.17.46,0,.64l-1.91,2c-.09.1-.21.14-.33.14Z" fill="#e5e7e8" stroke-width="0"/><path d="M22.14,23.84c-.12,0-.24-.05-.33-.14l-1.91-2c-.17-.18-.17-.46,0-.64l1.91-2c.18-.18.47-.19.65-.01.18.18.19.47.01.65l-1.6,1.68,1.6,1.68c.18.18.17.48-.01.65-.09.09-.2.13-.32.13Z" fill="#e5e7e8" stroke-width="0"/><path d="M24.09,23.84c-.05,0-.11,0-.16-.03-.24-.09-.36-.36-.27-.6l1.5-3.99c.09-.24.36-.36.6-.27.24.09.36.36.27.6l-1.5,3.99c-.07.19-.25.3-.43.3Z" fill="#e5e7e8" stroke-width="0"/><path d="M78.05,71.92c0,4.24-12.09,13.89-27.01,13.89s-27.01-9.65-27.01-13.89,12.09-7.69,27.01-7.69,27.01,3.44,27.01,7.68Z" fill="#d8d8e6" stroke-width="0"/><path d="M65.48,60.24c1.86.14,10.99,3.1,11.22,5.65s-19.21,13.77-27.73,13.65c-8.52-.12-24.81-10.65-24.23-13.15s6.74-5.86,10.53-6.15c4.74-.37,30.2,0,30.2,0Z" fill="#292f52" stroke-width="0"/><path d="M48.5,74.02c1.29.31,3.55,2.05,4.36,2.51s4.34,2.6,4.63,3.53.23,3.65-1.74,4.46-8.56-1.45-9.43-2.26c-.98-6.42,2.18-8.24,2.18-8.24Z" fill="#292f52" stroke-width="0"/><path d="M24.73,66.12c-.66.98-.85,4.92.02,6.31s10.24,7.64,21.06,9.84c-.35-1.62,3.45-6.39,4.22-7.23-7.91-3.89-19.26-10.47-25.29-8.91Z" fill="#3e4463" stroke-width="0"/><path d="M49.31,75.88c-4.96-.56-11.27,2.39-11.73,4.24-.46,1.85-.05,4.05,1.1,5.15s8.78.64,12.63-2.37c.79-3.12-2.01-7.02-2.01-7.02Z" fill="#292f52" stroke-width="0"/><path d="M49.24,76.77c-2.07-.08-6.1.98-7.26,2.02.69,1.79,1.22,4.4.64,5.27,2.31.41,6.81-.75,8.09-1.79.12-1.68-1.47-5.49-1.47-5.49Z" fill="#8a3eff" stroke-width="0"/><path d="M76.7,65.89c.89,1.5,1.39,5.44,0,6.83s-16.2,8.87-25.38,10.18c-1.39-1.31-2.39-6.25-2.01-7.02,6.17-4.71,20.13-10.88,27.39-9.99Z" fill="#3e4463" stroke-width="0"/><path d="M64.67,54.12c.25,3.12-1.33,3.47-2.43,4.22s-.75,3.01-.35,6.83c-2.49,1.97-15.97,4.92-23.43.93.17-1.1.29-4.11.12-5.44s-.81-2.08-3.07-3.41c-2.26-1.33.12-15.62,1.1-16.84.98-1.21,7.06-5.03,10.24-5.5,0,0,4.86-.29,6.83,0s9.08,3.65,10.99,5.84c1.91,2.2-.17,11.17,0,13.37Z" fill="#f5916a" stroke-width="0"/><path d="M57.88,66.39c.31-.08,6.79-1.16,9.64-3.24,4-2.92-1.24-20.44-2.58-21.98,0,0-1.03-1.69-3.95-3.08-2.23,1.34-1.7,7.49-1.53,8.74.5,3.82,2.08,9.09,2.43,10.3-.85.93-4.94,2.78-4.94,2.78l.93,6.48Z" fill="#ffc89e" stroke-width="0"/><path d="M43.06,66.78s-2.78.13-5.4-.77c-9.44-3.24-4.82-21.31-1.06-25.59,0,0,1.27-1.36,2.93-2.21,1.37.57,2.47,4.17,1.66,8.29-.75,3.86-1.83,11.34-1.83,12.11.85.62,3.32,1.85,3.32,1.85l.39,6.33Z" fill="#ffc89e" stroke-width="0"/><path d="M63.2,68.78h-25.91l-1.12-16.29c6.72-1.06,22.54-1.06,28.16,0l-1.12,16.29Z" fill="#cfd2d3" stroke-width="0"/><path d="M51.97,60.24c0,.96-.78,1.74-1.74,1.74s-1.74-.78-1.74-1.74.78-1.74,1.74-1.74,1.74.78,1.74,1.74Z" fill="#e6e8e8" stroke-width="0"/><polygon points="63.2 68.78 63.2 70.13 37.26 70.13 37.28 68.78 63.2 68.78" fill="#a2a9ad" stroke-width="0"/><path d="M54.27,31.56c-.1,1.04-.19,3.63.46,4.55-2.51,2.2-7.33,1.77-8.91.27.35-1.23.35-3.78,0-4.59s4.09-1.43,4.09-1.43l4.36,1.2Z" fill="#ffa993" stroke-width="0"/><path d="M42.22,25.2c-3.09-7.33,1.52-7.56,1.52-7.56,1-3.37,7.25-3.89,9.33-3.16,3.43,1.2,5.8,4.86,4.24,10.47,0,0-1.93,8.42-6.59,8.41-4.67-.01-8.5-8.16-8.5-8.16Z" fill="#292f52" stroke-width="0"/><path d="M58.24,26.91c0,1.78-1.59,2.29-2.58,2.29s-.7-1.59-.7-2.59.14-2,1.13-2,2.16.46,2.16,2.3Z" fill="#ffa993" stroke-width="0"/><path d="M41.2,27.24c0,1.78,1.59,2.29,2.58,2.29s.7-1.59.7-2.59-.14-2-1.13-2-2.16.46-2.16,2.3Z" fill="#ffa993" stroke-width="0"/><path d="M51.88,34.79c-1.82.82-4.59.72-5.83,0,.02-.57.04-1.28,0-1.69,1.46.47,5.83,1.69,5.83,1.69Z" fill="#ff7d71" stroke-width="0"/><path d="M42.93,25.46c0,5.55,2.78,9.45,7.79,9.45s6.17-6.56,6.17-9.45-4.67-6.21-7.17-6.21c-6.09,0-6.79,6.21-6.79,6.21Z" fill="#ffb29e" stroke-width="0"/><path d="M42.93,26.91c2.04-1.29,2.58-3.42,3.05-3.68,2.69-1.54,4.56,1.17,8.33-.15,0,0,.77,2.38,2.58,3.11.08-1.53-1.87-4.15-3.02-5.19-1.15-1.04-7.82-2.19-9.06.31-1.23,2.5-1.89,5.61-1.89,5.61Z" fill="#ff7d71" stroke-width="0"/><path d="M42.93,26.91c1.5-.98,2.24-3.18,2.35-4.03,3.39-2.51,5.94.73,9.3-.23.27,1.23,1.5,3.05,2.31,3.53.15-.97.68-2.57.26-3.65-.42-1.08-.94-4.9-7.62-5.09-6.68-.19-7.68,4.09-7.53,5.4.15,1.31.93,4.07.93,4.07Z" fill="#292f52" stroke-width="0"/><ellipse cx="52.55" cy="27.26" rx=".43" ry=".74" fill="#292f52" stroke-width="0"/><ellipse cx="47.82" cy="27.26" rx=".43" ry=".74" fill="#292f52" stroke-width="0"/><path d="M51.96,24.6s0,0,0-.03c0-.02.01-.05.03-.08.03-.06.08-.15.15-.22.04-.04.08-.08.13-.11.05-.04.1-.07.16-.1.06-.02.12-.05.19-.06.07-.02.14-.02.21-.02.07,0,.14,0,.21.02.07,0,.14.03.2.06.06.02.12.06.17.1.05.03.09.07.13.12.08.08.12.16.15.23.03.06.03.11.03.11v.02s0,.02-.01.02c0,0,0,0-.01,0,0,0-.03-.01-.07-.03-.04-.02-.11-.05-.19-.08-.04-.02-.08-.03-.13-.04-.05-.01-.09-.03-.15-.03-.1-.02-.21-.03-.32-.02-.22,0-.44.05-.6.1-.16.05-.26.1-.26.1,0,0-.02,0-.03,0,0,0,0,0,0-.01v-.02Z" fill="#ff7167" stroke-width="0"/><path d="M46.69,24.6s0-.04.03-.1c.03-.06.07-.14.13-.21.03-.04.07-.08.11-.11.04-.03.09-.07.14-.09.1-.05.22-.09.35-.1.13,0,.26.01.38.06.12.05.23.12.3.21.04.04.06.09.08.13.02.04.03.08.04.11.01.07.01.11.01.11v.02s-.01.02-.02.02c0,0,0,0,0,0,0,0-.02-.01-.06-.04-.03-.03-.09-.05-.16-.08-.07-.03-.15-.05-.24-.06-.09-.01-.19-.01-.29,0-.2.01-.4.06-.54.11-.14.04-.24.08-.24.08,0,0-.02,0-.02,0,0,0,0,0,0-.01v-.02Z" fill="#ff7167" stroke-width="0"/><path d="M51.03,28.95s.01.03.03.09c.02.06.05.13.09.23.07.19.18.45.23.73.02.14.04.3,0,.45-.02.08-.06.15-.13.2-.06.05-.13.08-.19.09-.12.02-.21,0-.27-.02-.06-.02-.09-.03-.09-.03-.02,0-.03-.03-.02-.05,0-.01.02-.02.03-.02h0s.03,0,.09,0c.06,0,.14,0,.22-.04.08-.03.14-.08.15-.18.02-.1,0-.23-.02-.36-.05-.26-.13-.52-.17-.73-.02-.1-.03-.19-.03-.26,0-.07,0-.1,0-.1h0s.02-.04.04-.03c.01,0,.03.01.03.03Z" fill="#ff7167" stroke-width="0"/><path d="M48.71,31.82s.06.02.16.07c.05.03.11.05.17.07.06.02.14.05.22.07.08.03.18.05.27.07.1.02.2.03.31.05.11.01.22.02.34.03.11,0,.23.01.35,0,.12,0,.23,0,.35,0,.11-.01.23-.01.34-.03.11-.01.21-.03.31-.05.1-.02.19-.04.28-.06.08-.03.16-.05.23-.07.06-.03.13-.05.17-.07.09-.05.14-.07.14-.07h.01s.08,0,.1.03c.01.03,0,.06-.01.08,0,0-.04.05-.12.13-.09.08-.22.18-.4.27-.09.04-.19.09-.29.12-.11.04-.22.08-.34.1-.12.03-.24.05-.37.07-.13,0-.26.02-.39.02-.13,0-.26,0-.39-.02-.13-.01-.25-.04-.37-.06-.12-.03-.24-.06-.34-.1-.05-.02-.1-.04-.15-.06-.05-.02-.09-.05-.14-.07-.09-.04-.17-.09-.23-.14-.07-.05-.12-.09-.16-.13-.08-.08-.12-.12-.12-.12-.03-.03-.03-.08,0-.11.02-.02.05-.02.08-.01Z" fill="#ff7167" stroke-width="0"/><path d="M37.98,10.7c-.24-.13-.41-.36-.5-.71-.05-.19-.09-.45-.13-.79-.03-.33-.04-.72-.04-1.16.1.11.27.16.51.16.25,0,.53-.04.86-.13.37-.1.68-.2.94-.29.26-.1.42-.17.49-.23.03.77.02,1.38-.03,1.83-.05.45-.11.72-.19.81-.21.24-.55.42-1.03.55-.35.09-.64.08-.88-.05ZM38.84,5.55c.28.08.52.21.74.4.22.19.37.42.44.68.03.12.06.27.07.45.02.18.02.34.02.47-.24-.23-.56-.41-.96-.53-.4-.12-.75-.14-1.04-.06-.23.06-.41.18-.53.35s-.21.41-.27.72c0-.66.04-1.15.08-1.48.05-.33.12-.57.23-.72.1-.15.26-.26.46-.31.22-.06.47-.05.75.03Z" fill="#e6e8e8" stroke-width="0"/><path d="M40.47,11.93c-.71-.35-1.33-.67-1.85-.95v-.04c.39.11.63.17.73.19.1.02.19.02.28,0,.31-.06.72-.22,1.23-.46.51-.25,1-.53,1.46-.83.46-.31.79-.58.99-.82.06.71.08,1.22.06,1.52-.02.3-.07.53-.16.68-.13.22-.32.47-.57.73-.25.27-.49.48-.71.64-.26-.09-.75-.31-1.46-.66ZM42.82,4.72c-.1.23-.16.4-.18.5l-1.16-.53c-.07.13-.14.28-.21.45-.07.17-.12.29-.13.38l-1.23-.56c.07-.11.16-.27.25-.49.1-.22.15-.38.17-.49l1.16.53c.07-.13.15-.28.21-.45.07-.17.11-.29.13-.38l1.23.56c-.06.09-.14.25-.24.48ZM41.48,3.41c-.08.18-.13.32-.16.43l-.93-.39c.07-.11.15-.25.22-.42.08-.17.12-.31.14-.42l.93.39c-.06.09-.13.22-.21.4ZM42.81,6.93c.16.25.26.48.3.7.03.17.1.63.19,1.39l-1.91-1.53c.09-.19.18-.48.27-.87.09-.39.14-.71.16-.96.5.6.82,1.03.98,1.27Z" fill="#e6e8e8" stroke-width="0"/><path d="M43.97,10.18c.1.03.2.04.28.04.31-.03.74-.14,1.27-.33.53-.19,1.05-.42,1.54-.68.49-.26.85-.5,1.07-.71-.02.71-.05,1.22-.09,1.52-.05.3-.12.52-.23.66-.15.21-.37.43-.64.67-.28.24-.54.43-.78.56-.25-.12-.71-.39-1.38-.81-.67-.42-1.25-.8-1.74-1.14v-.04c.37.15.61.23.71.27ZM46.98,4.81c.29.23.55.56.76,1,.21.44.35.93.4,1.49.02.17.01.57-.02,1.19-.08-.28-.14-.44-.15-.47-.2.36-.5.66-.88.89-.39.23-.76.36-1.13.4-.34.03-.61-.03-.82-.19-.21-.16-.33-.41-.37-.75-.04-.47,0-1.06.14-1.77.08.11.21.18.4.23.18.04.45.04.81.01.35-.03.74-.08,1.15-.14-.25-.31-.5-.53-.77-.66s-.53-.19-.78-.17c-.17.02-.33.09-.47.21-.14.12-.25.3-.34.53.13-.7.29-1.22.49-1.55.2-.33.44-.51.72-.54.28-.03.56.08.86.31Z" fill="#e6e8e8" stroke-width="0"/><path d="M50.85,6.02c.16.22.34.36.53.43.19.07.47.11.85.11v2.62c-.26,0-.49-.05-.68-.15s-.42-.28-.67-.54c-.08.72-.16,1.22-.21,1.5-.06.28-.13.49-.22.63-.12.19-.27.4-.48.62-.2.22-.36.37-.48.43-.2-.1-.54-.32-1.02-.67s-.82-.62-1.04-.81v-.04c.17.06.29.09.35.09.08,0,.29-.08.63-.24.34-.16.73-.37,1.18-.64.45-.27.88-.56,1.29-.88-.17-.18-.36-.41-.58-.7-.22-.28-.51-.68-.86-1.18.13-.17.27-.44.43-.8.16-.36.28-.66.35-.91.26.52.48.89.64,1.11Z" fill="#e6e8e8" stroke-width="0"/><path d="M54.15,10.62c-.08.07-.2.2-.37.39-.16.19-.27.33-.32.43l-.96-.83c-.1.11-.21.23-.33.37s-.19.25-.23.33l-1.02-.88c.1-.09.23-.22.38-.4.15-.18.25-.32.3-.42l.97.83c.11-.11.22-.23.33-.37.11-.14.19-.25.23-.33l1.02.88ZM52.22,11.67c.12-.14.21-.26.25-.36l.78.64c-.08.07-.19.18-.32.33-.13.15-.22.27-.27.37l-.78-.64c.1-.08.21-.2.33-.34ZM52.63,9.21c-.19.02-.36.03-.51.01-.05,0-.08-.12-.1-.36-.02-.24-.01-.56.02-.96.03-.41.08-.72.14-.95.06-.23.11-.34.16-.34.39.03.79.05,1.21.06.41,0,.73-.01.94-.05-.42.89-.73,1.52-.93,1.88-.2.37-.34.56-.42.59-.16.06-.33.1-.51.12ZM54.73,6.01c-.07.22-.15.42-.24.6l-.91-1.66c.13-.13.3-.33.49-.58.19-.25.33-.46.4-.62.17.55.28.94.33,1.17s.06.42.05.58c-.01.12-.05.29-.12.51Z" fill="#e6e8e8" stroke-width="0"/><path d="M55.7,11.46c-.26-.38-.32-.83-.19-1.34.24-.93.84-2.01,1.79-3.24h.04c-.32.47-.53.81-.64,1.04-.11.22-.19.44-.24.64-.04.13,0,.28.08.45.09.16.25.32.48.47.23.15.53.27.91.37.53.14,1.03.23,1.49.28.46.05.82.03,1.08-.07-.27.56-.51,1.01-.74,1.35s-.39.55-.5.63c-.23.17-.55.29-.96.33-.41.05-.83.01-1.26-.1-.63-.17-1.08-.44-1.34-.82ZM60.52,10.15v-.05s-.02-.03-.02-.03l-.62-2.17c.12-.1.32-.29.58-.58.27-.28.45-.5.56-.65.03.37.08.66.16.86s.2.36.37.48.42.22.75.31c.33.08.59.13.79.15.2.01.34,0,.41-.06.08-.06.2-.19.37-.37.16-.18.31-.36.46-.55h.04s-.5.88-.5.88c.04.16.18.31.42.45.24.14.54.25.9.35l-1.58,2.25c-.36-.11-.63-.29-.8-.52s-.21-.53-.12-.88c.03-.1.06-.2.11-.31-.37.46-.69.76-.95.89-.26.13-.51.17-.76.11-.28-.07-.47-.26-.57-.58ZM65.04,6.76c-.19.16-.32.29-.39.37l-.81-.98c-.12.09-.25.19-.38.31-.14.12-.23.21-.29.28l-.86-1.04c.11-.07.26-.18.44-.33.18-.15.3-.27.37-.36l.81.98c.12-.09.25-.19.39-.31.13-.12.23-.21.28-.28l.86,1.04c-.09.06-.23.16-.43.32ZM64.42,5c-.15.13-.26.23-.33.32l-.66-.76c.11-.07.24-.16.38-.27.14-.12.25-.22.31-.31l.66.76c-.09.05-.22.14-.37.27ZM65.55,8.65c-.08.14-.19.31-.35.52v-.04c.03-.06,0-.2-.05-.41s-.17-.5-.33-.86c.14-.06.32-.16.53-.29.21-.13.36-.23.44-.32,0,.28,0,.49-.02.63-.01.14-.03.27-.07.39-.03.12-.08.25-.16.38Z" fill="#e6e8e8" stroke-width="0"/><path d="M62.92,12.94c-.4-.68-.74-1.29-1.02-1.81l.02-.04c.27.31.44.49.52.57.07.07.15.12.23.16.29.12.72.21,1.28.29s1.12.11,1.68.11.98-.05,1.28-.14c-.34.63-.6,1.06-.78,1.31-.18.24-.35.4-.51.48-.23.12-.52.21-.88.3-.36.08-.67.13-.95.14-.17-.22-.46-.67-.86-1.36ZM67.63,10.05c0,.29-.05.54-.13.75-.07.16-.27.58-.61,1.26l-.75-2.33c.18-.11.42-.3.7-.58.29-.27.51-.51.67-.71.08.78.12,1.31.12,1.61Z" fill="#e6e8e8" stroke-width="0"/><path d="M67.58,12.64c-.11-.42-.01-.96.3-1.64.38-.83.65-1.44.81-1.83.16-.4.26-.71.3-.92.04-.21.06-.47.05-.76.16-.05.39-.16.71-.31.32-.15.55-.28.68-.38,0,.27-.04.5-.08.69-.05.19-.14.44-.29.76-.15.32-.43.92-.84,1.79-.14.3-.17.55-.07.75s.3.38.62.53l-1.13,2.37c-.59-.28-.94-.63-1.05-1.05Z" fill="#e6e8e8" stroke-width="0"/><path d="M72.1,15.64c-.53-.31-.94-.59-1.22-.85-.28-.26-.47-.55-.57-.87-.28.07-.57.08-.85.04s-.58-.16-.89-.34c-.04-.02-.02-.15.06-.37.08-.22.22-.51.43-.86.2-.35.38-.62.53-.8.15-.18.25-.26.29-.24l.53.3.02-.04c.13-.22.38-.46.75-.71.37-.25.75-.44,1.13-.57.38-.13.66-.14.84-.04.15.09.28.23.4.44.11.21.18.43.2.66.02.24-.02.45-.13.63-.12.2-.35.44-.71.7,0-.27-.08-.58-.25-.9-.17-.33-.35-.55-.56-.67-.11-.06-.25-.11-.42-.14-.17-.03-.32-.04-.46-.02-.14.02-.22.05-.26.11-.06.1-.06.25-.01.44.05.19.15.37.31.55.6.31,1.15.52,1.64.63-.08.07-.17.13-.27.19.16.1.41.25.76.45l-1.31,2.27ZM74.01,9.82c-.24.12-.4.21-.49.28l-.58-1.19c.12-.03.29-.1.51-.21.22-.11.38-.2.48-.28l.58,1.19c-.1.03-.26.1-.5.21Z" fill="#e6e8e8" stroke-width="0"/><path d="M74.02,16.67c-.04-.25.05-.51.26-.79.08-.11.17-.21.27-.29-.64.28-1.09.41-1.35.4-.15,0-.35-.06-.58-.17-.23-.1-.44-.22-.61-.36-.04-.03,0-.15.11-.36.11-.21.29-.48.54-.8.25-.32.46-.57.63-.73.17-.16.28-.23.32-.2.67.51,1.17.86,1.51,1.04.34.19.61.27.81.24.17-.02.37-.07.6-.13.23-.06.46-.15.69-.26l.03.03-1.17.59c0,.26.2.54.58.83.21.16.4.28.56.36.17.08.29.1.37.08.1-.03.26-.09.48-.19.22-.1.43-.21.64-.33l.04.03-.79.6c-.02.17.05.36.22.58.17.22.4.44.7.67l-2.33,1.46c-.29-.24-.47-.51-.54-.79s0-.57.23-.86c.06-.08.14-.16.22-.24-.53.29-.94.44-1.23.45-.3.02-.55-.06-.76-.22-.24-.18-.37-.4-.41-.65ZM79.38,17.17c-.12.1-.3.21-.53.35l.03-.04c.04-.05.07-.18.11-.4.03-.22.04-.53.03-.92.16,0,.36-.02.6-.06.24-.04.42-.08.53-.12-.11.26-.2.45-.26.57-.06.12-.13.23-.21.33-.08.1-.17.19-.29.29Z" fill="#e6e8e8" stroke-width="0"/></svg>